<mxfile host="65bd71144e" scale="3" border="0">
    <diagram id="FQdHSFAOBBNIvs0rj4v1" name="第 1 页">
        <mxGraphModel dx="4722" dy="4504" grid="1" gridSize="10" guides="1" tooltips="1" connect="1" arrows="1" fold="1" page="1" pageScale="1" pageWidth="827" pageHeight="1169" math="0" shadow="0">
            <root>
                <mxCell id="0"/>
                <mxCell id="1" parent="0"/>
                <mxCell id="2" value="" style="shape=image;verticalLabelPosition=bottom;labelBackgroundColor=default;verticalAlign=top;aspect=fixed;imageAspect=0;image=data:image/png,iVBORw0KGgoAAAANSUhEUgAABnMAAAOECAIAAAD161POAAAgAElEQVR4AezdPXLbxsMHYJ6KhU7DShd5C7YaX4O9jsELcNImLhwPJini/IvgnV1g8bkAIUoUKfDZwgKBxX480MjWzwtgUygECBAgQIAAAQIECBAgQIAAAQIECLxdYPP2U5xBgAABAgQIECBAgAABAgQIECBAgEAhWfNNQIAAAQIECBAgQIAAAQIECBAgQOASAcnaJWrOIUCAAAECBAgQIECAAAECBAgQICBZ8z1AgAABAgQIECBAgAABAgQIECBA4BIBydolas4hQIAAAQIECBAgQIAAAQIECBAgIFnzPUCAAAECBAgQIECAAAECBAgQIEDgEgHJ2iVqziFAgAABAgQIECBAgAABAgQIECAgWfM9QIAAAQIECBAgQIAAAQIECBAgQOASAcnaJWrOIUCAAAECBAgQIECAAAECBAgQICBZ8z1AgAABAgQIECBAgAABAgQIECBA4BIBydolas4hQIAAAQIECBAgQIAAAQIECBAgIFnzPUCAAAECBAgQIECAAAECBAgQIEDgEgHJ2iVqziFAgAABAgQIECBAgAABAgQIECAgWfM9QIAAAQIECBAgQIAAAQIECBAgQOASAcnaJWrOIUCAAAECBAgQIECAAAECBAgQICBZ8z1AgAABAgQIECBAgAABAgQIECBA4BIBydolas4hQIAAAQIECBAgQIAAAQIECBAgIFnzPUCAAAECBAgQIECAAAECBAgQIEDgEgHJ2iVqziFAgAABAgQIECBAgAABAgQIECAgWfM9QIAAAQIECBAgQIAAAQIECBAgQOASAcnaJWrOIUCAAAECBAgQIECAAAECBAgQICBZ8z1AgAABAgQIECBAgAABAgQIECBA4BIBydolas4hQIAAAQIECBAgQIAAAQIECBAgIFnzPUCAAAECBAgQIECAAAECBAgQIEDgEgHJ2iVqziFAgAABAgQIECBAgAABAgQIECAgWfM9QIAAAQIECBAgQIAAAQIECBAgQOASAcnaJWrOIUCAAAECBAgQIECAAAECBAgQICBZ8z1AgAABAgQIECBAgAABAgQIECBA4BIBydolas4hQIAAAQIECBAgQIAAAQIECBAgIFnzPUCAAAECBAgQIECAAAECBAgQIEDgEgHJ2iVqziFAgAABAgQIECBAgAABAgQIECAgWfM9QIAAAQIECBAgQIAAAQIECBAgQOASAcnaJWrOIUCAAAECBAgQIECAAAECBAgQICBZ8z1AgAABAgQIECBAgAABAgQIECBA4BIBydolas4hQIAAAQIECBAgQIAAAQIECBAgIFnzPUCAAAECBAgQIECAAAECBAgQIEDgEgHJ2iVqziFAgAABAgQIECBAgAABAgQIECAgWfM9QIAAAQIECBAgQIAAAQIECBAgQOASAcnaJWrOIUCAAAECBAgQIECAAAECBAgQICBZ8z1AgAABAgQIECBAgAABAgQIECBA4BIBydpQ7Xg8Hof7fCZAgAABAgQIECBAgAABAgQIECAwFJCs9USO++1ms9ls91cO147HQyxLujke9rv94XBp3ico7F1hHwgQIECAAAECBAgQIECAAAECHyYgWWso61QtJGsfHK2Nw63DLt/NuGZR1HU3u0Mz1MUb1ZwuOXNxF9mKYeHfNUq2MzsJECBAgAABAgQIECBAgAABArcRkKxF916qtjsMl5KFw9vx7iWX7HjYhWVwg3Arn6zFvcN+Lg/WjunUM0lhWy3GfTN/DGYxNf+u5kxrbz909bWEUzOynwABAgQIECBAgAABAgQIECCQEZCsHQ/VHaAx5xnGWlGsDYq2uwtuE62Dq14qVe/rJUUp4OpVLFLn/b2ZK5ndldocZ3ud6p1KZ8KuhYNIY95stqPS9DA6Eu/Dra7C6Fh9Vs+rMwObBAgQIECAAAECBAgQIECAAIFbCDx2slYvKKtym7nYpltxrl7+Eo5ztMk9w8VtKaR6e6f1UFIDM7e4pmRtu91NlBR6vTFZyw16PPNklkaa6SQdyjWYTveVAAECBAgQIECAAAECBAgQIPDZAg+brIX3AqTAaNmdnu9J14Z50uBzSo6GuVqzYu1dkVJKzqYWrqXjmUir+nacHN7Ed2uqnxv1YOadFtJZmWGkQ7kGOy3YJECAAAECBAgQIECAAAECBAh8qsAjJmu9UG2z3Y8eqza+As3T+PfVqwfCKrdFJzZN9ROl3qfp3Gj6SNPuoo3UTn7hmmRtEaJKBAgQIECAAAECBAgQIECAAIGBwKMla92FZzEeGz3Sq1nIVj/ba/bLW9K1w27bPMatl6wVx7B8LrMeqxOIzY4id+7gOjdvGB2/zaDpJbNYrGrlfI1+b019z1nrw/hEgAABAgQIECBAgAABAgQIrEvg0ZK1TsI0H1YtP/qWdC198/STtbR38DWtJTs/lEwqN2irKKqZN9leezx1M91Ik5RNZm9ta2GrqX9+5G+rMT3E/gB8IkCAAAECBAgQIECAAAECBAh8hsDDJWth0drwOf37/SGV9uFru0NzC2jcGF2NzvK3ycQnrFPLlSZQyh0MS9tSEhYqjusMT1/4ytLj8TieRfNm1OnYrEnKpqsM2u3TTX5Kod7QevKEQTc+EiBAgAABAgQIECBAgAABAgRuKfBwydo8dop6ltxfGVqKmdNkrlavE2tysMUbu0Oz7ivXeEq6Fgddk5NOLY3vEe2e0qnVz8C6lS7ZTtzvn8glvTuHAAECBAgQIECAAAECBAgQIPA+Aclax69JkHJxVqfe8s3jMS2G63xt18Vtd+1quU6FsFouLSXLhU51IPXeUTZ9TL00tJlnSsCG0WBucMXkgrPxgdRuP68b1+vtaUZlgwABAgQIECBAgAABAgQIECBwWwHJWuPfBk3ZwKip986Nw67zjoSpZ7SlyCm7liwN9D3D7NzKmu1jMMnUZT9ay0V7+Zr98971KdfpYLQ+EiBAgAABAgQIECBAgAABAgQ+ReAxkrWrxz1VVnQ29Dm2iVknXRq9VaA33HF+lhoZH6m/ZcK7Rkel+yy21EIYxNlBN9+Hx+EKvMxj2+J7Tkd9T+1oEaZqjPd359EMzQYBAgQIECBAgAABAgQIECBA4AYCkrU23Xn31mxI1a4S2+4O3Wir6raN13q5Wib5Ssene0s1ehMaVI8jaDu9wbde5yUNkxnhbYalVwIECBAgQIAAAQIECBAgQIDAIoHHSNaK3OPOmgebpUeabTYh88qU/a7OqKaei5bOGb96s7oIbapWLxGrk7Xt/ng8tI9dC/0f07sLtvu622HslFK54f72evfXrKWx76dG15742Vvnp/LZI9IfAQIECBAgQIAAAQIECBAgQGC5wIMka9MgnRs0p6OqlHadfdT/uJ9OqNZZf9Yma/GMfrwWIrWwwqxeejZYbJYWpA12j3uu98zVnw0cU1w4/ro0ousnfOMbO7sPnMscbXe5A3Ty8jpAgAABAgQIECBAgAABAgQI3FDgsZO1lDotedxYWl9VLSxbdMkO7Wq4zbaXDg2StdhancHFTK16glmuVpHdOTOcNMdMEpcO9e4aPf8h01K+/wvbH49gcY/5cdhLgAABAgQIECBAgAABAgQIELiKwOMma93FZJPJTb2YrFrN1gmKJk/oX6SUgoWbPHvluN+Fsh/tPxwOnYr1+d3FdPWuTXdf54zxZhp1Zsjp0DjKmt2TaWncbdiT2j93E+14VVy9J90ou7jH/DjsJUCAAAECBAgQIECAAAECBAhcReAxk7VeqjaKvUImFGp0blZMOVbn3tHNdpSLja/Q8bAfPN4sJmPb/gq28Xn1nhRNpe6LtGJtebDWxluDgXSSr3Dv6fmSMr3lfafhXxyMvbuBSVkHCBAgQIAAAQIECBAgQIAAAQLvF3i4ZK33SLP6fQItYzzaSdTCbaLDF2gedm2FsBprsBytbSy3leKphWFTipZStPbG08MIUhPZHlN759Oy1MyILDfLel86x5q1GSSHCBAgQIAAAQIECBAgQIAAga8r8EDJWlyH1t7m2Fk2djyEF3S2eVlVKUZq+disu+YthG+L87WUZKWk7Ow3TgqnqhPS6dmUbKKt1EL+nHT0XGCWej4fwXWG0TTeql+2lR97pyebBAgQIECAAAECBAgQIECAAIEbCDxEstZfp1YnYSFNG8dp1SK1/EK06g7RlPIMG82sbmvu3XxDnjTM3FI6tTs0q8/OpWD9b6PUQBp3/2i7pm2u1SZXm2pk2Gj1OXW92canyl3wR512vq3b/GDsJUCAAAECBAgQIECAAAECBAh8tMBjJGvtOzqb5WVN6pNSr/Dss4k7Ower3Trh1yBe6xyJF6pJpFIn578Om2jytO02raobVZn9pkgTnU6nUo3NxIK0dhZv67kd+vgRb7NDbg6mkU2PvalqgwABAgQIECBAgAABAgQIECDw6QIPkazFhVmZ56WFZ6jt9oeJPC08oyzcJdpLw8JD10Z3iNbJWy7/aV8McEjxXmhhXOqjuTbaZCsMJVdj7ttmSTqV6mSytfbQRO4203c6N7zr4aKSzN4655kxOUSAAAECBAgQIECAAAECBAgQ+DCBB0nW3ugVE7VBpDZ8kcEbm0zxWD4kSkfzi8JSQhWCtXyNmcGkkwcdD/PBNILNtttDs/fNgV4YUeq6l01e8mEw9pnZOkSAAAECBAgQIECAAAECBAgQ+DwByVprfcwEarOvJzge9vtDe/7MVkqo8hFRSqDyR4ui87y2ySqTnWcajy9gGLWUKoYph1kd06AvyfPicDothntZLyh1DDca6+RsHSBAgAABAgQIECBAgAABAgQIfJ7Aoydrx/he0NybDOJj10Y3ftZXpnObaHeJ18R1axOmcP/p8HbS5uhUS52E64KQKzWf0qn0Obf87dDe+5oe6nbB/aeNQuoqdd0cWLrx7gaWdqQeAQIECBAgQIAAAQIECBAgQOACgcdL1mKWNvFa0Ph+z/BQsGnJ6gWhnVsat0uWrXWSuHhq87aElB3lcq44iLZC0+fbgqrUQDgrbYemJu5u7VYJ1XbTT6GbRqqPpLbeNuBOs+9uoNOWTQIECBAgQIAAAQIECBAgQIDARws8XrLWubUyZVXhtaDzeVpRxLcUDB69Nlp+dubqjPK1ZmHYVPbULlfb7o8pZ3rbwrV0VrgXM0148qlp8T7RplbM36ZemHpmruFw6joElpeVeihTPAvGoAoBAgQIECBAgAABAgQIECBA4GoCD5isFYfdNr4UNL6x8pxs7tlro9eMnmukd7x+k2gnvwqpWa9K9aFzb2a6UbSTtKVdmRN7u9p4az6mGoRqnRhu06yw6zV8/sOo686c37QpWTuPrQYBAgQIECBAgAABAgQIECDw+QKPmKwtUM6/zODiiKnb43DhWoqYBndndmK1Xq7UTasW3anZhnFTt4CORrSt1qkd9+1j1+pzcwFgd3L97TTW3gT6VeY/vbuB+eYdJUCAAAECBAgQIECAAAECBAi8S0CylviOIU3b595lMPt+0HT6+a/D+0njSrDDOL3qv5Uzk0p1QrfJ2zrr4aRoKsZ3o6aGI8pEb+PUbfwKhsmpp95HHU+eMTjw7gYG7flIgAABAgQIECBAgAABAgQIEPhIgQdO1kKUFrK0fJhWPWPsHQ8Za65Stf4tLU2rMq5dr+H2rQj9p6lN52a9cG126Vq9ZG3bu3l0lJdVs516WcH4/tU6bBwsYQvN9kp6sNu2t/cNH6Ya2A96brBtECBAgAABAgQIECBAgAABAgQ+T+CRkrUQpO1CkJbyml7aVX1Y8jKDxVcnLbnq9DP9yLIqluoM7cxKr164Npc0HcPbGdox9+4OrXK+wY2obd3eViaO68V13TcWdGZ8lc1Bx71x+kCAAAECBAgQIECAAAECBAgQ+CSBh0rW9p3cqgl86pcZHLIvEXjnVWhTrPjSg06+NdVwOmN2HVo6uU7uzkRwqXb62sn73nBnZzq7aBfYbYb51mjN2htWp72t6lyS2IzUBgECBAgQIECAAAECBAgQIEDgugKPlKwVIVOKrwXd7Q+H4zWitOHFOh7CfZ8LErX2xON+94bcKDwb7k3Nh45CF28cVTu+eut46K2EGx23gwABAgQIECBAgAABAgQIECCweoGHStZWfzVNkAABAgQIECBAgAABAgQIECBA4PMEJGufZ60nAgQIECBAgAABAgQIECBAgACBNQlI1tZ0Nc2FAAECBAgQIECAAAECBAgQIEDg8wQka59nrScCBAgQIECAAAECBAgQIECAAIE1CUjW1nQ1zYUAAQIECBAgQIAAAQIECBAgQODzBCRrn2etJwIECBAgQIAAAQIECBAgQIAAgTUJSNbWdDXNhQABAgQIECBAgAABAgQIECBA4PMEJGufZ60nAgQIECBAgAABAgQIECBAgACBNQlI1tZ0Nc2FAAECBAgQIECAAAECBAgQIEDg8wQka59nrScCBAgQIECAAAECBAgQIECAAIE1CUjW1nQ1zYUAAQIECBAgQIAAAQIECBAgQODzBCRrn2etJwIECBAgQIAAAQIECBAgQIAAgTUJSNbWdDXNhQABAgQIBIHDbrPZHRZZHPfbzXZ/7NXt7jse+8d6Fd/74bjfbcfjrPZesdv3Dtv5BAgQIECAAAECBBoByVpDYYMAAQIECKxE4MOStZCxjYK3GumYyqEp+/2uLtu6bKrSi88Ou22d5YXm60OHXdPPG0a/kutlGgQIECBAgAABAl9XQLL2da+dkRMgQIAAgaIowhKvQanirMHO7W6wNC3qddenJc7evolwLcRf2RJ6reO1/b7K3EbL3lKM1iRr3TCtu51G5CsBAgQIECBAgACBOxWQrN3phTEsAgQIECCwTCDmYLs6xKqirGqlWbVd79llbvoMi84O8W7QQ9hsuuslazG7S4vMmiphbyz1nip/2x3aRkKNQ/9z5+xDuA30WCdr7SK2+k7W7a479sN0M50WbRIgQIAAAQIECBC4hYBk7Rbq+iRAgAABAh8mMMzBss9ZG1eKWVh31Vm4Q7NKyzppW7Uj/Zkfc9XS4GFtYSXdJnsn6bFNzUKdbScTPB7jI+K6o4rbg7bzw7CXAAECBAgQIECAwA0EJGs3QNclAQIECBD4OIFxaJZ5g0GmUhWjdVK0YhS2DSKuccB1PIT8bHifaZOq5ZasHQ/Nw9iq7C3dO7rb7fbVaNLCt9ygP85NSwQIECBAgAABAgQ+QECy9gGImiBAgAABArcTiHlYJ57a7XbbEHcNdmXXj4WntHVvE63XrMVXi6aFap2vvUmGFCyU7bZ9zluK4oZZW+/E+kPK8cJtofWu6uFtzesOPHEt52YfAQIECBAgQIDAXQlI1u7qchgMAQIECBB4q0B3EdiuKplkLa4ISwlWp4t+slYdqBOt0HDupQf12bHf9JKCw+FYrV8LC9iqpKz75LZOh3GzSgOrJWq7etnbIQ5l2wZ9uaENG/KZAAECBAgQIECAwG0FJGu39dc7AQIECBD4eIE3LPaK8VW1zC2tFUuJVvia9s2PMYRs1V2hzfKzcPJmfPtoeK1BVTXUbHqIO7chpmt2FZl7WudH4SgBAgQIECBAgACBzxeQrH2+uR4JECBAgMCHCRw7LwRoXg0wfjdofajzAtAivBc03jcab+lMK8067z/ohFzTwx2uVOvUrCK04aq3435X3/55POwP3QFVpx52dSAXus9Fc50ebBIgQIAAAQIECBC4tYBk7dZXQP8ECBAgQOAdAtWjybb9Uj3urL8vPhStXYIWcqvqGWnDpWVNojWfrKW7PzebXXtL6OFw2LcvKIj3eQ6bT3ONA2jHk3bHpWohUGuG0R6xRYAAAQIECBAgQODuBCRrn39JwvKC6kk3c4+g6Y6rOaG7c3I7rgGYPDo8MH7mznj9wPCc+nMY1vj0icp2EyBAgMBVBLI3fi7aWf0IHwVYbeIVtnLRVzWPKtIbZHhx+Vvn1Qn7fX2faLtyrXtedXb9Z7M+LY5+t5uK5K7CqFECBAgQIECAAAEClwlI1i5ze89Z6T6X+qEyuWyq98tM9vejiQFUbdYPnD4e9u1vMr0TjumZ1Idd/UtTU7fXde+k4YcFNTvvk2tvUaqerl2/SC4smBgP8hjSx318ud3073RpPGEcvTbCjUa9Uj9LO50QHvIzrNKrX38YndY2YIsAAQJ3I5D9S2L5ztHSsPBDNf3V0EvWwt9eZ38mZzsuMn8dDSr2P8YxpFHcjbSBECBAgAABAgQIEMgIrD9ZC/9YH5eUxPSPhvtmOg+aCV79Ck1D4XeLiUOxTmo/Q94+r7mont08rtvJrKrfLtobevJJVOymTtWah0eH1kN+NQ6uYr9xf52sHffb+telTte9seeyqPBs6s7ChFEeVXVfjT0erJ9ufahKFbv1eomP5KmRt/HuoriiYhSVDd5VF5HaX/fiL3/7upfDMHcLHVazrAZw2G+34UE/Ic2Lv0PWu9NzfnoD9IEAAQJ3JxD+MtpVP8Wqn1/x59n0zuEEwk/Ezt8Uobn0sf9XQtXR8PT4QoI2cWsqxWYHf6W254ZqYdT1nsEY4k/pdhjtabYIECBAgAABAgQI3J3AYyRr2yZmSXFL+td89RtEs3cf323W/W/yQYVUMwQ+3YdGh/NCKNeU+reFXCAV34k2SKR6y6OaX2XCRuc3j+rXl2xQVkVSvRHUD7qJz9VJvyR1vv+O++3ucKyStcMu/VJU/SbUzOLQ3u85eEJ2DRWCvu60w5npF6VOZ3GzmdbwQPs5/lJY5ZndIYeorAO2zdydVF2nquu0KLBqt/+p2henWV+tkD7WU4hXMe3u/abZDtEWAQIE7kwghlTNf/yc22j/FyJNo/qJWP/ojo01dfo/t8Ox5lB1dvwfifAXwSG11qkU/nsl/i2R+3shvjwhHN3uYrXBD/1wIJzcNpw68JUAAQIECBAgQIDAfQk8RrI2/S/zzq8AzYXp/V6Rq9DUbDd6v5i0u+N/u3dDoV0o4beFTlAUdnWTteo3meZla/GU6rz4G0r1uZ+vHQ9trfi86JQVHarST+g6cd9228ms9sfQdfhtJpRq7V3n16VmWumW0902PLU6Tib3a9P0ir/+L36ZqzNIw5p7VqshDD7W4zqmMQwu2aCtqvYgJzxUK9tqrebLVEbYSNggQIDAnQoMfhLOjbLzF1j8+6+TcXUOjf/To/lrKv30jZ0MOm6it/7fWmk8zUrl8H891c/c+BdRlagNh5PO8pUAAQIECBAgQIDAHQlI1jL/I979VWLwO8LUpeue0q0T9o+So3DvZf53jHBq/E1idyjik8baO3ziTYv1jT75aKnud2LE9a8ssVLKlap1ArsmSeqemh1k+D2qWpwX1uyluVW/XYUwbyaKamp3eQbbTeTXzR73x0DSRRx87DUSumnuY6omG/bEvLC5h7S72rCefLwZqoWot7povW58IECAwH0LdH+eT420+rsg/k0QfsbGn5+9n7b130j1fwXFn8z1X17DVC39tVIlZd2f2KHzavFa739q0pK1sNwt3IsfV7ft9un89LdJWFkdl8SlHVNzsZ8AAQIECBAgQIDArQQka5lkLfxDPkVfS345mXxeWid96l7gbsjU3Q51qt9s6l9tYoRUp2n7cMdmJlmrT+gvA5v4lCYVBxNTsmppWmg5dZ3q9OOrKlKrbv1Mv9+EX4XagDD9YhR/S6pmUr+koLcErvow/LN95cIulur+oWp7PlkLUV8s8Re5gJEm0BOv4NIuyVqS8JUAgbUKLPnLK6ZW8b8emmBtmIn1X/jS/f+T/r3/TVPx74n010QXt33JdZWWhQXTaZlaVa9a3tbL38KBWD33k73bum0CBAgQIECAAAECNxN4lGStjqSaLwl8/LtH/R/kKTIKFcaPaRutZZqMdOKCqTZIqiKk9gbFcF73F5lwJNzOWe1rn9w/un80jS9NJH4djqKa3fhXnCoFC7+oVPlZXHwQFiXs92l12HDJ2mEffqNqcqx2Rp2t+KtZ+8tT0Wgf9+HhPPv282hrNI1eQNZP+QZL2Jo3D1RtZFKzuABtpNDihgSvd1ts2JEF7g3TBwIECNyvQPhZOPqr6l6Ge5wc2cSBid33Mh/jIECAAAECBAgQeGiBx0jWRku4mv/9rv6bvUmHqord/zEfVKhrdsOw+P0zzLTSN1W1P0Y79bO8QsLT5GlV9JUq1/ubo9X+ejFYM+T4H/idT/XZdTqWHiIdzgpZ1ujmyNh9HRzFFKr+haX6RScFaoMxpBHGSDCtnOvHY4P0K50RvoZZDh78Vov01zzU51Tk7bLB2EBXfNRVd7S5CxbuJRolZTHE7Lxzoh1SvC2p22F3MrYJECBAgAABAgQIECBAgAABAkngMZK15jbKJgxK84+hT4pXwmNe4n2R6WidCi0IWUK2Mw5vOhlaaLJdqlZtjU+K8VbKiWKkFt8wcIgJWRhGnZ9178gJO8MTarbVorCwHV9DkG6ziadUT7Jp5lU57HdhzKlUB6toLQ2hOaHemEuj0kK7wTn1W0uTcSe/OsShDhOv2PWuXrpX3aY6WKQ2/DhQHo097Mhcmyrv22VL/EYYTMRHAgQIECBAgAABAgQIECBAgMBA4FGStcG0m48hXmmDs5DBdD6GWv0KzXnDjYn0JqxCa0OdzlqrEFGFGxCHuVJot46GwlPM4r088dEz8R7R6r2d/XNiz6FmGGlcG9bEbiFTq/ror3sLz5KuHrCW3gManmtWM8T2tpMxWeghW3KnVDlgNdFDpoRxZGazD3MJB5JqB66+Ju0164ili9K7ZqGNNLdUIX6NfUysvxvco9s7zwcCBAgQIECAAAECBAgQIECAQC0gWevHLiGU6YU9vZRm+tsmZUDDGnVEVO3uBEQx72kCn2MI0ZpTw7EUc8UHm8VnfoW1X2FknUaaM/ob1VvW0rq1/rH2U3dknR7TzZv9wCud1j0p7au/jsYVp9jmY5lgbbRmLZwS9dt+4r2qg8HdYQEAACAASURBVLYHH5ssMqzeq+5t7TbUv57tqGMS2dwH3N9og8a2vi0CBAgQIECAAAECBAgQIECAwEBAstZP1uqHgrW50vuStV5kFbKxOjGLqU4b+fSjouqk8Gf9ns1q0Vp6u0CvzXQ5wxPT9vE5/NW6tfbB1cf6btB2SuGcdItoWN8WGmzTxNjvVLJ0/g0GaUCxj/DG0Sr32uZXunU7jjXrFwe0yVpsr+8zDhcrkjjyZiIVcRDsDKm7Oeije6hqr7vHNgECBAgQIECAAAECBAgQIEBgLCBZGyZrMWhqk6YqWUvPImu/DihDFtOEOs2xOqGpQ556NVx12+buULUc6g4ynm6uUz9CLd7g2dxZWlXovezyeNjt9r0XwVUr10LOVj+srBlVu1HfQRpeflrtjDvCs9fC4Mbzac98y1Zls2TNWtPqQKQBbF5F0c/LQg8xUayivCY4jPehhjtlm4Y7G7HR/lK15tNUstg53SYBAgQIECBAgAABAgQIECBAQLI2StaqRVb91WVNotNs9KOdwbqv+vuqjchCIhd3xgworaOK8dXuUL1IoP1erE6rH5LWxmJta/UysP4qtLDka3rlWtt6Glv1poPtNrxaILy6Ybs/xFVyqdU00jqVOu53C8soyAotLVuz1oxynKx1X0IxWMLWzULjCr3ujbDV4rwqXmwCthiQxj7mnrMWazVDskGAAAECBAgQIECAAAECBAgQGAqsP1kbzvjzPnfu/mw7PexTdBX2Ve8SGCwOqyO046G9mTKuyAov/2wb6mzFSKyusttXrz3oHB5t1qFZLwKr7zjtdVAPJJ4fQruFpddGuht08btBY2+DZC08h67T6uBjOCMGl9W82iyynXgdU1aNLA8Jd7tev217tggQIECAAAECBAgQIECAAAECRVFI1u7x26Be4LZ8aG8+YXnTH1FzeniTRyYPfMR4tEGAAAECBAgQIECAAAECBAgQ+AgBydpHKGqDAAECBAgQIECAAAECBAgQIEDg8QQka493zc2YAAECBAgQIECAAAECBAgQIEDgIwQkax+hqA0CBAgQIECAwHoF/v33358/f/5QCBAgQIAAAQJ9ge/fv//111/r/UfQoplJ1hYxqUSAAAECBAgQeFiBnz9//u9///tPIUCAAAECBAj0Bf7+++8//vjjYf+NVE1csvbg3wCmT4AAAQIECBA4I/Djx4///vuvVAgQIECAAAECfYF//vnn999/Lx67SNYe+/qbPQECBAgQIEDgnIBkrVQIECBAgACBnIBkrSgKyVqhECBAgAABAgQIzAhI1kqFAAECBAgQyAlI1iRrhUKAAAECBAgQIDAvIFkrFQIECBAgQCAnIFmTrBUKAQIECBAgQIDAvIBkrVQIECBAgACBnIBkTbJWKAQIECBAgAABAvMCkrVSIUCAAAECBHICkjXJWqEQIECAAAECBAjMC0jWSoXAXQucXqtyOi0d5mmq6tKmTpMtVENY2k5dOzTXDj5+yv2xdHrqESDweQKSNclaoRAgQIAAAQIECMwLSNZKhcC9Cpxenjbd8vT82iZUuUGfXp/jGU8vg3qnl+pA29qoSmovdjp/tG1lc25IaQqpwdfnzsm9zVQjjcNXAgTuQECyJlkrFAIECBAgQIAAgXkByVqpELhPgRhCtclVnVE9v+ZHm7KzpxCtDVKqKs5qY7k6gBvUiu1WvUx18rYhlWXK1bojyixXCwFibjD5mdpLgMDnCUjWJGuFQoAAAQIECBAgMC8gWSsVAvcoUIVY/bVnuX1p7K/P9fqxUKkfU8XTBmFZzLz61UJLuaqph+rg4Jy5IdWtvZwJziaG0nRrgwCB2wlI1iRrhUKAAAECBAgQIDAvIFkrFQJ3KJCPuJaEUOHMXvwVTxoEa/VyssHe2ZhsInWbHlKawnSN6J6q3eFFMCQCBCRrkrVCIUCAAAECBFYqcDzsd9u67PaH40qn+RnTkqyVCoH7E5hKo/IpWW/8o2QtRmK9rC3UH1eb6rNuferwxJBiYBZ7nTqxalew1rt6PhC4MwHJmmStUAgQIECAAIEVChz32/DY6+12F0v1YXdY4Uw/ZUqStVIhcH8Ck3nTOBAbDj5To8622tcfxB2b3oq1tOvUvPhz0PCbhtRN07rbgzarB7GNUr9hLZ8JELiVgGRNslYoBAgQIECAwCoFjofeKrXDLgRtewvXLrrYkrVSIXB/Apl4rBrkZL7VzCF/avuCg/iKg9E7PWO7vXd1Dl+EkG83+2y2fpbW/9SMM2zMHOrV84EAgRsJSNYka4VCgAABAgQIPIRAXMVm1dpl11qyVioE7k5gOnG6LFmrXwa6eXp6fn5+Dm8P3Tw9d9+OUAdrTy/Nurbh+0PfMKTBGN9w5t1dCAMi8OgCkjXJWqEQIECAAAECDyEgWXvHZZaslQqB+xN4wwKx4eDHp8akq3/L5amffmVqhGZ7lcKHfiN1z71ag5NClclkbXDicCI+EyBwewHJmmStUAgQIECAAIFVClTvLxjct2TN2mXXWrJWKgTuT2AqdJpMqdopDBOwqVM6XUxV6UVrnfptZ6PgLNbqB3ATrcfd/We99dr1gQCBOxCQrEnWCoUAAQIECBBYn0B6gcFuvz/UZb/bbjaStcuutWStVAjcn8BEGtWLuiZGPUzWhp+b09oDsbfe+wzqSjEnqw8sGVKVlg3+26PzsdPHVHPN8GwQIHAHApI1yVqhECBAgAABAqsTiK8rGKRo7gZ9x2WWrJUKgTsUyAdP+b394beBWbW/m451a3ba6mx2awzu48zX6u09vb6EB7kNSv1ct+fnzqPd4qj6a9t6XftAgMBdCEjWJGuFQoAAAQIECKxOICRrg/eAxrDNmrULL7VkrVQI3KNATKwGN0tOhWS98Q+TtVxD6Rlqqf18nWH6lau1YEjxtEGItuC03qR8IEDgNgKSNclaoRAgQIAAAQKrE6huBt3tj8eiKI7VE9e2W3eDXnyhJWulQuA+BWL6tHl6fj2F8voS3+nZT6iqFxGkfKyaRjhtUOulXjVWtdS01T2vSs024eWg3e66VZo4bnZIY8txspaL6Mbn2UOAwO0FJGuStUIhQIAAAQIEVihwjI9VS0/u2e4OR3eDvuMyS9ZKhcDdCrzGNC39uHvq3E1ZDbnJw07tFMbJWnjNQL+lzWbcVnmqsrvUW65KDNdiTFfXyjTTjqTeGiVrox2jU+wgQOBOBCRrkrVCIUCAAAECBFYrcIxltdP7vIlJ1kqFwJ0LVKvIpgZ56qRqU3XS/qql+RPme6tbWlQp9eorAQJfVkCyJlkrFAIECBAgQIAAgXkByVqpECBAgAABAjkByZpkrVAIECBAgAABAgTmBSRrpUKAAAECBAjkBCRrkrVCIUCAAAECBAgQmBeQrJUKAQIECBAgkBOQrEnWCoUAAQIECBAgQGBeQLJWKgQIECBAgEBOQLImWSsUAgQIECBAgACBeQHJWqkQIECAAAECOQHJmmStUAgQIECAAAECBOYFJGulQoAAAQIECOQEJGuStUIhQIAAAQIECBCYF/jzzz9/++23/xQCBAgQIECAQF/gt99++/79+/w/JFZ/dLP6GZogAQIECBAgQIDAewR+/fr17du3/1MIECBAgAABAn2Bb9++/fr16z3/zFjBuZK1FVxEUyBAgAABAgQIECBAgAABAgQIELiBgGTtBui6JECAAAECBAgQIECAAAECBAgQWIGAZG0FF9EUCBAgQIAAAQIECBAgQIAAAQIEbiAgWbsBui4JECBAgAABAgQIECBAgAABAgRWICBZW8FFNAUCBAgQIECAAAECBAgQIECAAIEbCEjWboCuSwIECBAgQIAAAQIECBAgQIAAgRUISNZWcBFNgQABAgQIECBAgAABAgQIECBA4AYCkrUboOuSAAECBAgQIPCFBP7999+fP3/+UAgQIECAAAECfYHv37//9ddfX+hfNdcYqmTtGqraJECAAAECBAisR+Dnz5//+9///lMIECBAgAABAn2Bv//++48//ljPP3oumolk7SI2JxEgQIAAAQIEHkbgx48f//33X6kQIECAAAECBPoC//zzz++//148dpGsPfb1N3sCBAgQIECAwDkByVqpECBAgAABAjkByVpRFJK1QiFAgAABAgQIEJgRkKyVCgECBAgQIJATkKxJ1gqFAAECBAgQIEBgXkCyVioECBAgQIBATkCyJlkrFAIECBAgQIAAgXkByVqpECBAgAABAjkByZpkrVAIECBAgAABAgTmBSRrpUKAAAECBAjkBCRrkrVCIUCAAAECBNYocDwe1zitG81JslYqBD5V4PRaldPpLd0uPOtstdPZGmV5tsopVyZnEypPHqwPTNTJ9TNR9VwPjhMgcImAZE2yVigECBAgQIDA+gSO++1mszusb2I3mpFkrVQIfJbA6eVp0y1Pz69nM6eyXHjW2Wqnl+d+95unl2H3ZxsZD6ee0LitqBobnDiW2KfqDAfT0J1pL7XrKwEC7xaQrEnWCoUAAQIECBBYn4Bk7WOvqWStVAh8jsDr82azacO0Ojd6fp3vfeFZZ6sNKpSnuGPT635QJz/CuPf5dbScLDeNqoVeH6Nqc3VGnbxEw1EgOGrUDgIEPkZAsiZZKxQCBAgQIEBgfQKStY+9ppK1UiHwGQJVatXPhHL7+mPJ1cjsy+wqe/vqOGy28d4Jdc3MvmxT/YbTp3j2fK5WDfNMnWYwYc3dsrppCL4SIPAuAcmaZK1QCBAgQIAAgfUJSNY+9ppK1kqFwCcI5EOmmFLN3Nu48KxF1TIPOwvnNb0vaqQsYxTWnDQnFxs8U3NJnaqPuaVtc6NwjACB9whI1iRrhUKAAAECBAisT6BJ1o6H/W5bld3+4KUGF15qyVqpELi+wFSENr8AbOFZC6uNZtk7r/ehUzXu764T68VxnYqDzan2utWW1KnqL0/guu3bJkDgvQKSNclaoRAgQIAAAQLrE6iStX14j8Fmu93tdtuwtdls98K1S662ZK1UCFxfICZD3XwqdTmbUy08a2G11GX6Gk9r1pQtbaSTtNVPQUvtdb/GWpvwNLb0JtTu0Wp7SZ1Yc3kAN+7EHgIE3iUgWZOsFQoBAgQIECCwPoGYrG3C60HbJO142IVwzRtDL7jckrVSIXB9gZBbNSFWt7vJQCtUWnjWwmrdbtMrPtuwb2kjVcz13HvN6NNz//lx1cPTmld51huD+ceZn6lTIXTeaPrUvgGiPx2fCBC4ioBkTbJWKAQIECBAgMD6BKpkbRSixWxttHd90//wGUnWSoXA1QWmV13FfKnNt3ojWXjWwmq9pqtYq9Pv4kZixfCO05f69aCvVcjWzc3q0Ozp5fVU93qqanUqLalTnXx6eX5+qZa+vcS+njrj7s3KBwIEPlpAsiZZKxQCBAgQIEBgfQLNc9YGUwvRmjtCBygLPkrWSoXA9QVCjtSJldoOY8A0lRQtPGthtabTKhwbDGdxI6fXlzYxq9vszyJ+GjRfr8Br3uy5pE4z4O5GNfgpsW5N2wQIvF9AsiZZKxQCBAgQIEBgfQIhWcslaFOJ2/oEPnZGkrVSIXB9gX701PY3vVQs1Fl41sJqda+xdpNwNUN5WyPNad1G67hrck6dLpbUGfaRPneaSbt8JUDgSgKSNclaoRAgQIAAAQLrE5hK0NwOetm1lqyVCoHrC0wlSfMp0cKzFlYLs4xVs6vn3tBIhiue3U3WcovKOpPt1u8116nT29/5MHlup45NAgQ+RkCyJlkrFAIECBAgQGB9AjFZGy9amwrc1gfwwTOSrJUKgU8QyAdX+b3tcPLHR3tHO2ILo71xRzZWC/VH1ScaOb2e0tPT2oF2A7F8Q/0OltQpy/Bm0fm+2hHYIkDgGgKSNclaoRAgQIAAAQLrE4gR2ug9oFasXXqlJWulQuAzBKpYq7+Uq5tH5cew8Kwl1WJn47tA236XNJJuUB3kXf2J5Bqqb21tnr62pE5stTmjHmj+xHYWtggQ+EgByZpkrVAIECBAgACB9QlUa9a22812tz8cQznst5uN1xdceKkla6VC4HMEqmjr6bl6p+Zr/Z7Ll25IdRrHXwvOCsM/U63KozZP9Ts2qzdt1n+2AzjTSMWUKjXvBn15Cj+BewlY290plnqyvVxvSZ0lfX3OxdMLgQcVkKxJ1gqFAAECBAgQWJ9Auu3zuN/FQC38ShdStuP6pvopM5KslQqBTxN4fY4pVPyxtdk8PfditXRH5iClCqnZ/Fn18OeqVRFV3W//Sy8SW9TXqd9TmMj4ps1TlRw2fY0nG+4P7c0sA5KrM+7r066fjgg8nIBkTbJWKAQIECBAgMDaBeKitbVP8qrzk6yVCoFPFqjWcU11mnmKWaw6f1bT2sJqTf3sxqJGqkrtireLW1rQ26K+sgOwkwCB9whI1iRrhUKAAAECBAgQIDAvIFkrFQIECBAgQCAnIFmTrBUKAQIECBAgQIDAvIBkrVQIECBAgACBnIBkTbJWKAQIECBAgAABAvMCkrVSIUCAAAECBHICkjXJWqEQIECAAAECBAjMC0jWSoUAAQIECBDICUjWJGuFQoAAAQIECBAgMC8gWSsVAgQIECBAICcgWZOsFQoBAgQIECBAgMC8gGStVAgQIECAAIGcgGRNslYoBAgQIECAAAEC8wJ//vnnb7/99p9CgAABAgQIEOgL/Pbbb9+/f5//h8Tqj25WP0MTJECAAAECBAgQeI/Ar1+/vn379n8KAQIECBAgQKAv8O3bt1+/fr3nnxkrOFeytoKLaAoECBAgQIAAAQIECBAgQIAAAQI3EJCs3QBdlwQIECBAgAABAgQIECBAgAABAisQkKyt4CKaAgECBAgQIECAAAECBAgQIECAwA0EJGs3QNclAQIECBAgQIAAAQIECBAgQIDACgQkayu4iKZAgAABAgQIECBAgAABAgQIECBwAwHJ2g3QdUmAAAECBAgQIECAAAECBAgQILACAcnaCi6iKRAgQIAAAQIECBAgQIAAAQIECNxAQLJ2A3RdEiBAgAABAgS+kMC///778+fPHwoBAgQIECBAoC/w/fv3v/766wv9q+YaQ5WsXUNVmwQIECBAgACB9Qj8/Pnzf//7338KAQIECBAgQKAv8Pfff//xxx/r+UfPRTORrF3E5iQCBAgQIECAwMMI/Pjx47///isVAgQIECBAgEBf4J9//vn999+Lxy6Stce+/mZPgAABAgQIEDgnIFkrFQIECBAgQCAnIFkrikKyVigECBAgQIAAAQIzApK1UiFAgAABAgRyApI1yVqhECBAgAABAgQIzAtI1kqFAAECBAgQyAlI1iRrhUKAAAECBAgQIDAvIFkrFQIECBAgQCAnIFmTrBUKAQIECBAgQIDAvIBkrVQIECBAgACBnIBkTbJWKAQIECBAgAABAvMCkrVSIXBLgdNrVU6nt4xi4VnLqp0m+p7Yf5pr9TRR2slNVMiPoarcnmyLAIHPFZCsSdYKhQABAgQIECBAYF5AslYqBG4kcHp52nTL0/Prgnht4VmLqp1en+MQnl76HU/uH4x4s3l6fu3oDTttZtd08Prc7BtsNFWa9lJr4yNNFRsECFxXQLImWSsUAgQIECBAgACBeQHJWqkQuIlAzJjaMK2OkXpBVWZcC886X+30UodqIVrrZFdT+8uyGmE74rLO3zonl+VoRdpLiNK6VUY1TrHhbpU475Sr9c/OkNhFgMD1BCRrkrVCIUCAAAECBAgQmBeQrJUKgRsIVNFXf6lYbl9/aLkamX2ZXeVw3+tzWG92KuOBTqw1tb9qYBT8DZsdjjfkdqOT+pXywVps+PklLJLrjK5/pk8ECFxbQLImWSsUAgQIECBAgACBeQHJWqkQ+HyBKjfq3kgZxpDPmNrRLTxrYbW63VA7l10N9ucbrceczc6qRWfZQ+2UqmRvFL6l3s6JdBuyTYDAxwtI1iRrhUKAAAECBAisVeB4POx326rs9ofjWud5/XlJ1kqFwKcLTAVGcf9kFrXwrIXV0qQHCVranVnLlg3gpnqL2VgusWs6qDZShtbd3Z471Xq3tm0CBK4nIFmTrBUKAQIECBAgsEqB434bHn293e5CidubnXTtsmstWSsVAp8ukIuT4iDCgck4auFZC6ulSU91Odg/1Wp2/+JALFexu6+7nQbsKwECnycgWZOsFQoBAgQIECCwQoHDLqRq+84ytWPY1duzwmlfa0qStVIh8OkCg9Sq7T+bU6XDC89aWO1cq8Nm4tCGqV9MvoZZYP3C0erdn0+dVx6kLpuvmeCsv6v/qTnPBgECnyQgWZOsFQoBAgQIECCwPgEp2sdeU8laqRD4bIHpvCjGVxO3gy48a2G1Zs7DBC0dGO2PDW/iew/i+z1f67eLDoO18Oy15+eX11iqOk/5KWVmO9g1PZk0TF8JELimgGRNslYoBAgQIECAwOoEBGsffEkla6VC4NMFRqlVGsEgWEq7q68Lz1pYLbU9VT23/5TCtLQebcGrP6v3MozeUVDm3l0Q+uzVlKyly+QrgdsISNYka4VCgAABAgQIrE5AsvbBl1SyVioEPl1glCDVI5gPkhaetbBamnSoPrzJMxyb2l+WccXa6fyrTFMPsaleYBaOVEvguovZ4sD7Q5kHaTqwQYDAlQQka5K1QiFAgAABAgRWJyBZ++BLKlkrFQKfLjAVGE2FYtUAF561sFqa9FSCNrU/nRe7GeVl6Wjva6zazdBSsNaN0ar2qsVwuT8H5/c68IEAgSsJSNYka4VCgAABAgQIrE4gvhd0d1jdvG42IclaqRD4fIF8+pXf244uf3y0d7QjtpDfO7027Uyylg8BT6fX11M74HorUzfu6gZr5en15Xlcwu2mm6ew/2Xc7qgjOwgQ+GAByZpkrVAIECBAgACB9QnEaG34ItDjfn/ovCx0fbO+3owka6VC4AYCMecarPjKBFCDkS08a2G1qvHQay/iqvuc2h8Pj4Ox6d1vGk3defoSz82NLlXwlQCBqwpI1iRrhUKAAAECBAisUSBma5vt7nCsymG33Ww2w7BtjTO/xpwka6VC4CYCMZxq3rRZv2izHyKdqjrd+yAXnBVms7BaqtrvtuIITeT25+7kbAFTxy+v1dPYXl+qVWe9FWe5rK1torslWetq2Cbw+QKSNclaoRAgQIAAAQIrFTjuY5qWnsUTUraVzvTq05KslQqBWwm8PsfYqf5J9jS64bFKoIb51rmz6tksrDb5poLJZO1cLjZ4gWgMD3vCb4jL3lC114UPBAh8jIBkTbJWKAQIECBAgMCqBeo1a6ue49UnJ1krFQK3FUiv2syP4jTxeLH5s5q2FlZr6n/YRtXxxOA/rBcNESBwXQHJmmStUAgQIECAAAECBOYFJGulQoAAAQIECOQEJGuStUIhQIAAAQIECBCYF5CslQoBAgQIECCQE5CsSdYKhQABAgQIECBAYF5AslYqBAgQIECAQE5AsiZZKxQCBAgQIECAAIF5AclaqRAgQIAAAQI5AcmaZK1QCBAgQIAAAQIE5gUka6VCgAABAgQI5AQka5K1QiFAgAABAgQIEJgXkKyVCgECBAgQIJATkKxJ1gqFAAECBAgQIEBgXuDPP//87bff/lMIECBAgAABAn2B33777fv37/P/kFj90c3qZ2iCBAgQIECAAAEC7xH49evXt2/f/k8hQIAAAQIECPQFvn379uvXr/f8M2MF50rWVnARTYEAAQIECBAgQIAAAQIECBAgQOAGApK1G6DrkgABAgQIECBAgAABAgQIECBAYAUCkrUVXERTIECAAAECBAgQIECAAAECBAgQuIGAZO0G6LokQIAAAQIECBAgQIAAAQIECBBYgYBkbQUX0RQIECBAgAABAgQIECBAgAABAgRuICBZuwG6LgkQIECAAAECBAgQIECAAAECBFYgIFlbwUU0BQIECBAgQIAAAQIECBAgQIAAgRsISNZugK5LAgQIECBAgMAXEvj3339//vz5QyFAgAABAgQI9AW+f//+119/faF/1VxjqJK1a6hqkwABAgQIECCwHoGfP3/+73//+08hQIAAAQIECPQF/v777z/++GM9/+i5aCaStYvYnESAAAECBAgQeBiBHz9+/Pfff6VCgAABAgQIEOgL/PPPP7///nvx2EWy9tjX3+wJECBAgAABAucEJGulQoAAAQIECOQEJGtFUUjWCoUAAQIECBAgQGBGQLJWKgQIECBAgEBOQLImWSsUAgQIECBAgACBeQHJWqkQIECAAAECOQHJmmStUAgQIECAAAECBOYFJGulQoAAAQIECOQEJGuStUIhQIAAAQIECBCYF5CslQoBAgQIECCQE5CsSdYKhQABAgQIEHgggePx+ECz/bCpStZKhcBdC5xeq3I6nR3maaoMz1zQ5mncX7b1YdPdz9UJ3T1x+83tjFqwgwCBTxKQrEnWCoUAAQIECBB4GIHDbrPZ7mVrb77gkrVSIXCvAqeXp023PD2/zsRrr8/dut3tp5fmtNPLc7/NTedg5XB6rar0DwzHUrffr9SFTCcMaqTd3fFtNuNRdJuyTYDArQQka5K1QiFAgAABAgQeRkCyduGllqyVCoH7FIhJWRum1ZHU8+v0aDOLwUI212ZbVfjW5nN1iNZUSLnbU0jfmr2xw9j98+uoi4nRtAFav5nyje1MNG83AQKfIyBZk6wVCgECBAgQIPAwApK1Cy+1ZK1UCNyjQJWrtYvNwhhz+2bHHmOsNtqK5w+iuV6V1+dNFeWFmu15oY86EZvtrj1Y9fTSz/Xi4be107ZoiwCBWwhI1iRrhUKAAAECBAg8jIBk7cJLLVkrFQJ3KJALwep4q594zY190Eg+1MruHSdr4z3TPad+Y9OD4b6lnekeHCFA4HMEJGuStUIhQIAAAQIE1ipwPOx326rs9odjUUjWLrzUkrVSIXB/ArlMKowyG4NNDT8FXM3xbKq1cGe2c6ChXwAAIABJREFUWtNydyN2G/O03CyWt9Nt0zYBArcRkKxJ1gqFAAECBAgQWKXAYbeND7/e7kIJ29v93hsMLrvWkrVSIXB/AjGdGty3GUe5PJjKxVr1vvY9CHHHZtzRqJtYsapXP2ptAq3bbXe7rr64nYnm7SZA4FMFJGuStUIhQIAAAQIEVigQVqdtNruwUK0ux32dtHk3aCJZ/lWyVioE7k9glGylIU5GbqlC+ppJteKh9iUF8TUF9XPV0lnp66j/qrnn3otFn577j4FLa+qa+z8zY1jYThqHrwQI3FZAsiZZKxQCBAgQIEBgdQIxRduOIrQYt413r276Hz8hyVqpELg7gUwkVY9xabI2Ua9+Gejm6en5uY7JMvlY9a6EJiALXccRbTZPzy/160Ffq5CtV6l6xUK7Ai4zjWXt3N0FMSACjyogWZOsFQoBAgQIECCwOoGp56lN7V8dwEdPSLJWKgTuT2C0ZiwNcSIxS4fT13y1uLefhZ2maw4rvry0d5FW/QzOHXzMv3Dh9Hq2nTQJXwkQuLmAZE2yVigECBAgQIDA6gSmErSp/asD+OgJSdZKhcD9CYxCqnqImVVgmcFXC8PatWNVlalzc32Fff1kLdNNtbQtPaUtNtM/Z6rHUVu5IYwq2UGAwOcLSNYka4VCgAABAgQIrE5gKkGb2r86gI+ekGStVAjcn8BUJrUogpo4eTItyxzI7MohxZ5ighe34qtl8n8MY75+a207/f0+ESBwYwHJmmStUAgQIECAAIHVCcTnrO0Ow3lNPH5tWM3nkYBkrVQI3KFAPh3L7x0MP6Zv/cVjsUbcn0m4co2OkrXT6fV0GnTUXbN2en0JT24blKcQs8VHuqV3HZxrZ9SFHQQI3FJAsiZZKxQCBAgQIEBgfQLVi0AH2VpYsbbZeIPBBZdbslYqBO5RIOZd6U7LeoBT2Vhv/JOVci2WdTo26Ci+iqAbztWNDrK1ya7qAY0zu8va6c3PBwIEPlFAsiZZKxQCBAgQIEBgjQJVtrbd7Q/HUA777Waz3YY/Rq8MXeP0P3hOkrVSIXCfAjGF2jw9Vy/jfH2JL+Psxl1lWb1/oBuLTcRn1Qyrg02Tp7DQLC4rG61kC333u0qjad4N+lItSEuL0XKG42QtBXmdd4wuaCfXtn0ECHyGgGRNslYoBAgQIECAwEoFjvvdtnmYz3a3Pxaes3bhpZaslQqBuxV4rYKv+qfd0/MwxkpRWbM/l2X1ZnfqNxnu1WxO7lQcJ2sxxothWvOzN4R+nXPGm/nRZIZwpp1xy/YQIPA5ApI1yVqhECBAgAABAqsWiEvWVj3DT5icZK1UCNy5wCmWqUFmHn82VbXdXzU5n4u1tXtb7zj1Ku30GvWBAIGPFZCsSdYKhQABAgQIECBAYF5AslYqBAgQIECAQE5AsiZZKxQCBAgQIECAAIF5AclaqRAgQIAAAQI5AcmaZK1QCBAgQIAAAQIE5gUka6VCgAABAgQI5AQka5K1QiFAgAABAgQIEJgXkKyVCgECBAgQIJATkKxJ1gqFAAECBAgQIEBgXkCyVioECBAgQIBATkCyJlkrFAIECBAgQIAAgXkByVqpECBAgAABAjkByZpkrVAIECBAgAABAgTmBf7888/ffvvtP4UAAQIECBAg0Bf47bffvn//Pv8PidUf3ax+hiZIgAABAgQIECDwHoFfv359+/bt/xQCBAgQIECAQF/g27dvv379es8/M1ZwrmRtBRfRFAgQIECAAAECBAgQIECAAAECBG4gIFm7AbouCRAgQIAAAQIECBAgQIAAAQIEViAgWVvBRTQFAgQIECBAgAABAgQIECBAgACBGwhI1m6ArksCBAgQIECAAAECBAgQIECAAIEVCEjWVnARTYEAAQIECBAgQIAAAQIECBAgQOAGApK1G6DrkgABAgQIECBAgAABAgQIECBAYAUCkrUVXERTIECAAAECBAgQIECAAAECBAgQuIGAZO0G6LokQIAAAQIECBAgQIAAAQIECBBYgYBkbQUX0RQIECBAgAABAgQIECBAgAABAgRuICBZuwG6LgkQIECAAAECBAgQIECAAAECBFYgIFlbwUU0BQIECBAgQIAAAQIECBAgQIAAgRsISNZugK5LAgQIECBAgAABAgQIECBAgACBFQhI1lZwEU2BAAECBAgQIECAAAECBAgQIEDgBgKStRug65IAAQIECBAgQIAAAQIECBAgQGAFApK1FVxEUyBAgAABAgQIECBAgAABAgQIELiBgGTtBui6JECAAAECBAgQIECAAAECBAgQWIGAZG0FF9EUCBAgQIAAAQIECBAgQIAAAQIEbiAgWbsBui4JECBAgAABAgQIECBAgAABAgRWICBZW8FFNAUCBAgQIECAAAECBAgQIECAAIEbCEjWboCuSwIECBAgQIAAAQIECBAgQIAAgRUISNZWcBFNgQABAgQIECBAgAABAgQIECBA4AYCkrUboOuSAAECBAgQIECAAAECBAgQIEBgBQKStRVcRFMgQIAAAQIECBAgQIAAAQIECBC4gYBk7QbouiRAgAABAgQIECBAgAABAgQIEFiBgGRtBRfRFAgQIECAAAECBAgQIECAAAECBG4gIFm7AbouCRAgQIAAAQIECBAgQIAAAQIEViAgWVvBRTQFAgQIECBAgAABAgQIECBAgACBGwhI1m6ArksCBAgQIECAAAECBAgQIECAAIEVCEjWVnARTYEAAQIECBAgQIAAAQIECBAgQOAGApK1G6DrkgABAgQIECBAgAABAgQIECBAYAUCkrUVXERTIECAAAECBAgQIECAAAECBAgQuIGAZO0G6LokQIAAAQIECBAgQIAAAQIECBBYgYBkbQUX0RQIECBAgAABAgQIECBAgAABAgRuICBZuwG6LgkQIECAAAECBAgQIECAAAECBFYgIFlbwUU0BQIECBAgQIAAAQIECBAgQIAAgRsISNZugK5LAgQIECBAgAABAgQIECBAgACBFQhI1lZwEU2BAAECBAgQIECAAAECBAgQIEDgBgKStRug65IAAQIECBAgQIAAAQIECBAgQGAFApK1FVxEUyBAgAABAgQIECBAgAABAgQIELiBgGTtBui6JECAAAECBAgQIECAAAECBAgQWIGAZG0FF9EUCBAgQIAAAQIECBAgQIAAAQIEbiAgWbsBui4JECBAgAABAgQIECBAgAABAgRWICBZW8FFNAUCBAgQIECAAAECBAgQIECAAIEbCEjWboCuSwIECBAgQIAAAQIECBAgQIAAgRUISNZWcBFNgQABAgQIECBAgAABAgQIECBA4AYCkrUboOuSAAECBAgQIECAAAECBAgQIEBgBQKStRVcRFMgQIAAAQIECBAgQIAAAQIECBC4gYBk7QbouiRAgAABAgQIECBAgAABAgQIEFiBgGRtBRfRFAgQIECAAAECBAgQIECAAAECBG4gIFm7AbouCRAgQIAAAQIECBAgQIAAAQIEViAgWVvBRTQFAgQIECBAgAABAgQIECBAgACBGwhI1m6ArksCBAgQIECAAAECBAgQIECAAIEVCEjWVnARTYEAAQIECBAgQIAAAQIECBAgQOAGApK1G6DrkgABAgQIECBAgAABAgQIECBAYAUCkrUVXERTIECAAAECBAgQIECAAAECBAgQuIGAZO0G6LokQIAAAQIECBAgQIAAAQIECBBYgYBkbQUX0RQIECBAgAABAgQIECBAgAABAgRuICBZuwG6LgkQIECAAAECBAgQIECAAAECBFYgIFlbwUU0BQIECBAgQIAAAQIECBAgQIAAgRsISNZugK5LAgQIECBAgAABAgQIECBAgACBFQhI1lZwEU2BAAECBAgQIECAAAECBAgQIEDgBgKStRug65IAAQIECBAgQIAAAQIECBAgQGAFApK1FVxEUyBAgAABAgQIECBAgAABAgQIELiBgGTtBui6JECAAAECBAgQIECAAAECBAgQWIGAZG0FF9EUCBAgQIAAAQIECBAgQIAAAQIEbiAgWbsBui4JECBAgAABAgQIECBAgAABAgRWICBZW8FFNAUCBAgQIECAAAECBAgQIECAAIEbCEjWboCuSwIECBAgQIAAAQIECBAgQIAAgRUISNZWcBFNgQABAgQIECBAgAABAgQIECBA4AYCkrUboOuSAAECBAgQIECAAAECBAgQIEBgBQKStRVcRFMgQIAAAQIECBAgQIAAAQIECBC4gYBk7QbouiRAgAABAgQIECBAgAABAgQIEFiBgGRtBRfRFAgQIECAAAECBAgQIECAAAECBG4gIFm7AbouCRAgQIAAAQIECBAgQIAAAQIEViAgWVvBRTQFAgQIECBAgAABAgQIECBAgACBGwhI1m6ArksCBAgQIECAAAECBAgQIECAAIEVCEjWVnARTYEAAQIECBAgQIAAAQIECBAgQOAGApK1G6DrkgABAgQIfKjAYbfd7g6jJo/77WaT2T+qaAcBAgQIECBAgAABApcJSNYuc3MWAQIECBC4H4HDLp+gnYnWjsfDW8rx2JlxCPOWl0G8dzzsd0vLvttrZwA2CRAgQIAAAQIECNyDgGTtHq6CMRAgQIAAgfcITCVrxXy0Fk57Q+nFY+Hc7XZJPLYdL5w77hfkcvXIer2+B8m5BAgQIECAAAECBK4gIFm7AqomCRAgQIDApwp0krWYpc3EZdvza8BCE2erdbpsp5q9KzVbsz0nu3U87LabzWa7O1ixlgWykwABAgQIECBA4F4EJGv3ciWMgwABAgQIvFUgrf2qkrRwc+ZufzxTzvfxnmQtc1fqW5M1qdr5S6QGAQIECBAgQIDA3QhI1u7mUhgIAQIECBB4q0D1oLR9WOC13cdnpqU1Xsd9eKlB/FRtzjTde4BaEW8hvXTN2juTtRAVhrVqe2vVZq6XQwQIECBAgAABAnckIFm7o4thKAQIECBA4AKB6gbQ3vPI4q4mHet/GvYwWlP2ljVradVc9TKDdu1c/XKD3f5YjNofDqD+XE3j/H2oE6fbTYAAAQIECBAgQOAWApK1W6jrkwABAgQIfJjAOJHKJGkh3poIrUbJ15uStd5bPqtno3VeaxDWno3az8889tqLB/P17CVAgAABAgQIECBwTwKStXu6GsZCgAABAgTeKlAHa2G5WLVILYZo40f/V/Uy0dUo+apq1qvOmi9h+VmnjM4qipihNQvlmrqDmsfqDtZ462r3j3Af6HZX3dLa3R+2B7erNk3bIECAAAECBAgQIHBrAcnara+A/gkQIECAwDsEDrvNdr/fbTa7/T48bW0bH7m2D3vbJKwKt47hS3d31e0g+aqes7bZ7gZl8Oiz0VlVsBbf59mfzqBm+PjWkskD+334RIAAAQIECBAgQOBGApK1G8HrlgABAgQIvF8g3kK5j5FZSJ+Oh+PxGB/+342z4hq0KpzKLf7qVo0jqhudH132rJDHhTtCe0nYqGa+4UW95k+1lwABAgQIECBAgMDNBCRrN6PXMQECBAgQeKdACq3S105zYVd7d+h4pVpbdXTyooxrcNahej1pWCYXg7xOuDao2Xbc31rUa/8UnwgQIECAAAECBAjcXECydvNLYAAECBAgQOAygeN+24ZnvXViob0qWws3inZirkxHo+RrUcbVOauK0radAfTCtU7NTO/NrkW9NrVtECBAgAABAgQIELgPAcnafVwHoyBAgAABApcLTIRXYXdauTbd+OjkRRlXfVaVoWWf3hYf+HasEr5O6jY1kEW9Tp1sPwECBAgQIECAAIEbCUjWbgSvWwIECBAg8GECo3AstFyHXmeztdHJizKu5qzD4NUG7aSqJ77FtXOStZbFFgECBAgQIECAwKoEJGurupwmQ4AAAQIPKdDEXPXsj4fwntDNdnc4poBtOw7AjlWpTq4/hC/h5FB9XDq4o7PGtes9w8F1GuluLsrzuifYJkCAAAECBAgQIHAHApK1O7gIhkCAAAECBN4l0AmvjofdtknVUqPHfXxlZ4zawksGQgnnvLV0lp697fTOiXX31Rj2u6bEQe/T6Lq1bBMgQIAAAQIECBC4XwHJ2v1eGyMjQIAAAQLLBJpkLeZd2914fVpRHA8xXuu8JXRyldnkgc5omi47+/KbMzXDKxjaElbYKQQIECBAgAABAgS+loBk7WtdL6MlQIAAAQJjgePxcDhWsVT9ZVzng/d0ujzT8vKaZxpymAABAgQIECBAgMD9CUjW7u+aGBEBAgQIECBAgAABAgQIECBAgMBXEJCsfYWrZIwECBAgQIAAAQIECBAgQIAAAQL3JyBZu79rYkQECBAgQIAAAQIECBAgQIAAAQJfQUCy9hWukjESIECAAAECBAgQIECAAAECBAjcn4Bk7f6uiRERIECAAAECBAgQIECAAAECBAh8BQHJ2le4SsZIgAABAgQIECBAgAABAgQIECBwfwKStfu7JkZEgAABAgQIECBAgAABAgQIECDwFQQka1/hKhkjAQIECBAgQIAAAQIECBAgQIDA/QlI1u7vmhgRAQIECBAgQIAAAQIECBAgQIDAVxCQrH2Fq2SMBAgQIECAAAECBAgQIECAAAEC9ycgWbu/a2JEBAgQIECAAAECBAgQIECAAAECX0FAsvYVrpIxEiBAgAABAgRuJ/Dvv//+/Pnzh0KAAAECBAgQ6At8//79r7/+ut0/Uu6iZ8naXVwGgyBAgAABAgQI3K3Az58/S4UAAQIECBAgkBP4448/iscukrXHvv5mT4AAAQIECBA4J/Djx49SIUCAAAECBAjkBH7//ffisYtk7bGvv9kTIECAAAECBM4JSNZKhQABAgQIEJgQkKxJ1gqFAAECBAgQIEBgRkCyVioECBAgQIDAhIBkTbJWKAQIECBAgAABAjMCkrVSIUCAAAECBCYEJGuStUIhQIAAAQIECBCYEZCslQoBAgQIECAwISBZk6wVCgECBAgQIECAwIyAZK1UCBAgQIAAgQkByZpkrVAIECBAgACBtQocD6kcj2ud4yfMS7JWKgS+uMApluWTCNXP1Z6uU/U2+DPb3Om1Kud7y55uJwECdyEgWZOsFQoBAgQIECCwOoHjYbfdDMt2d5CvXXKpJWulQuArC5xenuKPw6eXs2lZnGasf6bydJ3U2+An8LC908tzNaqm3rDGVyY3dgKPJSBZk6wVCgECBAgQILAugeM+pmohSEtJ2jFFbdt92rWuOV91NpK1UiHwdQXapGtZdFXVf36dm/FcnXjs+XWwYm2wKO31OQRqz68p6ju9xpxt2QjnRuYYAQI3EJCsSdYKhQABAgQIEFiTwGEXfmHLLU8L6Zpk7YJrLVkrFQJfViBmWM8vYdnaotyqqj+bq5WzdepkbRYs10A8b9EQZ5t2kACBzxeQrEnWCoUAAQIECBBYj0C1Xm13WM+M7mAmkrVSIfBFBVKEtTS2ivXPxFtn6oTDZ1rIh2/5vV8U3rAJPJSAZE2yVigECBAgQIDAagRisGZd2gdfT8laqRD4kgJtBrYsWVtS62ydBclaXPQ2St+WnPglL4NBE1i9gGRNslYoBAgQIECAwGoEwq2ggrWPvpyStVIh8AUFuhlYd3tqKrFOePZZ88LOcc3zdWKN6ilt9aPWxq2UZT2e5jlr1Y7N/NPdcg3ZR4DAHQhI1iRrhUKAAAECBAisRcCStatcSclaqRD4cgJ1dlW/IqD/KTuZuMCteVFnvTFYWLagTtXTc+/Fn0/PmbeSppeDPj09xZeEPrXvM8iOz04CBO5WQLImWSsUAgQIECBAYC0CMVkbPmStevRa+/vi8PhaJn+9eUjWSoXAVxOIGVi7BOx8slaHZk8vzTqy8fs6l9SJPW02T88v9etBq7d+Dh+9Vje+eXp6fq5juGz+9tXcjZfAQwpI1iRrhUKAAAECBAisRSC7Zu142O/qst3G14auZbqfNQ/JWqkQ+FoCg1ytufuyXsGWmUw8Y7BCrSz7bwFdUqcsT68vbTpX9zQcT6al07BOZpB2ESBwnwKSNclaoRAgQIAAAQKrEQjPWdtML0o7c3g1DB88EclaqRD4SgK53OrlafaNnZNr2jp515I6U0ydZqZjvl6lqZbsJ0Dg/gQka5K1QiFAgAABAgRWI1Dd+TkZrUnWLrrSkrVSIfB1BOrbMds74Adb7S2inTnFk3JHOmnXkjqdJnubvXNDm+PlcfUKueyBXls+ECBwbwKSNclaoRAgQIAAAQLrEZiP1iRrF11pyVqpEPg6AqfXl/DoskGpXxLw/Jx7mcD0MrKYiNVhV3e7y9Hffzq9nsY3nXYCusEtpp2W+g11DtgkQOC+BSRrkrVCIUCAAAECBNYkUGVr2/1xNKnqyMzNoqMz7IgCkrVSIfDFBc6GVrHCZrhqLQZizSqyJXXqCG2QrfWCtTLfTvVMt9EQvji84RN4CAHJmmStUAgQIECAAIF1CRzj0rTNZrvbH45VOex34eUFm+3kjaLrIvjY2UjWSoXAFxcYJ2vVGwM6QVaVd23Cy0FjeX15jgvdumnbkjoxReu+GzQ84m1w+2dq57nuK6yzG3X2xckNn8ADCUjWJGuFQoAAAQIECKxP4HioorT2AUPb7e4wXse2vplfYUaStVIh8MUFMslaNvCq8q30g/Mpc+voqc7AZuqcXvvNbJ6eXweL2MIrREeVXkaVvri64RN4FAHJmmStUAgQIECAAIHVCtRL1iRq77rCkrVSIbBKgcwD0cI8qzVr8zNeUKeqciYtW1RpfiiOEiBwawHJmmStUAgQIECAAAECBGYEJGulQoAAAQIECEwISNYka4VCgAABAgQIECAwIyBZKxUCBAgQIEBgQkCyJlkrFAIECBAgQIAAgRkByVqpECBAgAABAhMCkjXJWqEQIECAAAECBAjMCEjWSoUAAQIECBCYEJCsSdYKhQABAgQIECBAYEZAslYqBAgQIECAwISAZE2yVigECBAgQIAAAQIzApK1UiFAgAABAgQmBCRrkrVCIUCAAAECBAgQmBH4888/S4UAAQIECBAgkBP4448/iscukrXHvv5mT4AAAQIECBA4J/Dr169v3779n0KAAAECBAgQ6At8+/btn1+/zv1TYuXHJWsrv8CmR4AAAQIECBAgQIAAAQIECBAgcCUBydqVYDVLgAABAgQIECBAgAABAgQIECCwcgHJ2sovsOkRIECAAAECBAgQIECAAAECBAhcSUCydiVYzRIgQIAAAQIECBAgQIAAAQIECKxcQLK28gtsegQIECBAgAABAgQIECBAgAABAlcSkKxdCVazBAgQIECAAAECBAgQIECAAAECKxeQrK38ApseAQIECBAgQIAAAQIECBAgQIDAlQQka1eC1SwBAgQIECBAYCUC//7778+fP38oBAgQIECAAIG+wPfv3//666+V/Ivn0mlI1i6Vcx4BAgQIECBA4DEEfv78WSoECBAgQIAAgZzAH3/8UTx2kaw99vU3ewIECBAgQIDAOYEfP36UCgECBAgQIEAgJ/D7778Xj10ka499/c2eAAECBAgQIHBOQLJWKgQIECBAgMCEgGRNslYoBAgQIECAAAECMwKStVIhQIAAAQIEJgQka5K1QiFAgAABAgQIEJgRkKyVCgECBAgQIDAhIFmTrBUKAQIECBAgQIDAjIBkrVQIECBAgACBCQHJmmStUAgQIECAAAECBGYEJGulQoAAAQIECEwISNYka4VCgAABAgQIrFHgeDyucVq3mJNkrVQI3KnA6bUqp9NbB3g6LTonVMtUrHYP/myHMDjQfjxTpT082AotDHb5SIDA3QhI1iRrhUKAAAECBAisT+C43242u8P6JnaLGUnWSoXA/QmcXp423fL0/Lo4fIrnPr2cq5+6GNRMu7u9bzabptbr8+BI8zFVOddCX3vhaPsn+USAwOcJSNYka4VCgAABAgQIrE9AsvaB11SyVioE7k0gpldtmFZHVc+vS8ZZVT5bt42/UiBWNx4PPL+2K9Hqrbbv0aFTPKdp53wLnbZignh2tO0JtggQ+GwByZpkrVAIECBAgACB9QlI1j7wmkrWSoXAfQlUuVp/zVluX3bUseL5pKqq9hJyrSYRq9qrc7Fs4xM7+8Fa+YYWFo52ol+7CRD4DAHJmmStUAgQIECAAIH1CUjWPvCaStZKhcBdCeTTpkF6NTHieO4gKstUTV3kGg3HzrfQbTS1lvYtbiGe+La+Uh++EiDwaQKSNclaoRAgQIAAAQLrExgna8f9brfb7Q/ea/Dmqy1ZKxUC9ySQS7vC+BasBJs6dTC9NtDKnbA4F0utxua6q+QWtpDrPLXpKwEC9yMgWZOsFQoBAgQIECCwPoFBshY/brZ7sdoll1qyVioE7klgFFSlwZ0LrGJStQlPSEuvFE1n9r52A63udl0p7qpystED1nrtdOv31p0tayHWOj/aXJf2ESDwqQKSNclaoRAgQIAAAQLrE+gma4fddrMRq11+kSVrpULgngQmA7TJyK0afTzcvKez3uhFXqFeP0vrf4rtVLuen7uvJn167j/0rcN1aQvLRtvpyCYBArcSkKxJ1gqFAAECBAgQWJ9Ak6xVsdrOTaDvuMaStVIhcEcCmaiqHt18slZHVU8vr6e6/uk1xmO9cG3QRqazuGuzeXp+qV8PWrUy8ei1QXux5yUtLBvtHV0WQyHwwAKSNclaoRAgQIAAAQLrE6iStd0urMoQq73z+krWSoXAPQmE0KmXhqXB5VKsdKyMB8en9c/pfxqtYKsaO72+tOlc3f7oxNn951tYNNpmbjYIELipgGRNslYoBAgQIECAwPoEqgerVXc7ebzaO6+vZK1UCNyTwFSKlVlf1g578mCntUycNXla23K11WmmPVQtTuu+u6A9NtrqtjDZbbfSqAU7CBC4jYBkTbJWKAQIECBAgMD6BGKytt0fj4d62dr6pvh5M5KslQqBexKYip1mU6d4Ui7jas6qYrBP+I/vAAAgAElEQVThc9jaz7mTW5Zc+1MDbc/qbnVb6G5361Qr7+ZH0qvvAwECnyAgWZOsFQoBAgQIECCwPoHmOWtFUS1f2x3WN8nPmpFkrVQI3JVAPrHK700Dnzra7j+9vjyPS3xPwVPYn95RcDq9ntKT2lLrZS7yipnd+P7TsjzfQjuqtoewNbW/X8snAgQ+V0CyJlkrFAIECBAgQGB9Ap1krSiKuHDNTaGXXmbJWqkQuC+BGDBt+ku3mrVnE0PNnVMHYrn0q25lHGXV/QyytUzvmV1Vo0tauGy0E1O3mwCB6wpI1iRrhUKAAAECBAisT6CfrFm49q4rLFkrFQL3JhDTqc3Tc/V6zteX8Us+y1NVp83fqrRqE14OGkt91iCh6890nKzVaVz33aAv1cK2tKgttpCPxurG0+jbkYxbuGS0/bH7RIDAJwlI1iRrhUKAAAECBAisT2CYrFm49o5rLFkrFQJ3KPAa07T0HLSn5m7NNNQmmuosLztVEVw6KcRjnaPpzM7XXLJWhtAuRmGddl777eTPaxs+30K897PfzdnRtu3bIkDgEwUka5K1QiFAgAABAgQIEJgRkKyVCoG7FaiWn00NL/NAtFB1/qSpxkb7q2b6kdqo0uyORS180GhnB+IgAQLvEJCsSdYKhQABAgQIECBAYEZAslYqBAgQIECAwISAZE2yVigECBAgQIAAAQIzApK1UiFAgAABAgQmBCRrkrVCIUCAAAECBAgQmBGQrJUKAQIECBAgMCEgWZOsFQoBAgQIECBAgMCMgGStVAgQIECAAIEJAcmaZK1QCBAgQIAAAQIEZgQka6VCgAABAgQITAhI1iRrhUKAAAECBAgQIDAjIFkrFQIECBAgQGBCQLImWSsUAgQIECBAgACBGYE///yzVAgQIECAAAECOYHv378Xj10ka499/c2eAAECBAgQIHBO4NevX9++ffs/hQABAgQIECDQF/j27duvX7/O/VNi5cclayu/wKZHgAABAgQIECBAgAABAgQIECBwJQHJ2pVgNUuAAAECBAgQIECAAAECBAgQILByAcnayi+w6REgQIAAAQIECBAgQIAAAQIECFxJQLJ2JVjNEiBAgAABAgQIECBAgAABAgQIrFxAsrbyC2x6BAgQIECAAAECBAgQIECAAAECVxKQrF0JVrMECBAgQIAAAQIECBAgQIAAAQIrF5CsrfwCmx4BAgQIECBAgAABAgQIECBAgMCVBCRrV4LVLAECBAgQIECAAAECBAgQIECAwMoFJGsrv8CmR4AAAQIECBAgQIAAAQIECBAgcCUBydqVYDVLgAABAgQIECBAgAABAgQIECCwcgHJ2sovsOkRIECAAAECBAgQIECAAAECBAhcSUCydiVYzRIgQIAAAQIECBAgQIAAAQIECKxcQLK28gtsegQIECBAgAABAgQIECBAgAABAlcSkKxdCVazBAgQIECAAAECBAgQIECAAAECKxeQrK38ApseAQIECBAgQIAAAQIECBAgQIDAlQQka1eC1SwBAgQIECBAgAABAgQIECBAgMDKBSRrK7/ApkeAAAECBAgQIECAAAECBAgQIHAlAcnalWA1S4AAAQIECBAgQIAAAQIECBAgsHIBydrKL7DpESBAgAABAgQIECBAgAABAgQIXElAsnYlWM0SIECAAAECBAgQIECAAAECBAisXECytvILbHoECBAgQIAAAQIECBAgQIAAAQJXEpCsXQlWswQIECBAgAABAgQIECBAgAABAisXkKyt/AKbHgECBAgQIECAAAECBAgQIECAwJUEJGtXgtUsAQIECBAgQIAAAQIECBAgQIDAygUkayu/wKZHgAABAgQIECBAgAABAgQIECBwJQHJ2pVgNUuAAAECBAgQIECAAAECBAgQILByAcnayi+w6REgQIAAAQIECBAgQIAAAQIECFxJQLJ2JVjNEiBAgAABAgQIECBAgAABAgQIrFxAsrbyC2x6BAgQIECAAAECBAgQIECAAAECVxKQrF0JVrMECBAgQIAAAQIECBAgQIAAAQIrF5CsrfwCmx4BAgQIECBAgAABAgQIECBAgMCVBCRrV4LVLAECBAgQIECAAAECBAgQIECAwMoFJGsrv8CmR4AAAQIECBAgQIAAAQIECBAgcCUBydqVYDVLgAABAgQIECBAgAABAgQIECCwcgHJ2sovsOkRIECAAAECBAgQIECAAAECBAhcSUCydiVYzRIgQIAAAQIECBAgQIAAAQIECKxcQLK28gtsegQIECBAgAABAgQIECBAgACB/2/v7nXkOO69Ac+dSCewHR5HA3NvwLqMSbh3IL/OHUxGEEzsa9CkxAY6OHdwzsBgJGqhlJQOVkRDiSkaQr/o6o/pz5le7tbsbvXzD8SZmurqqqcBUfqhuptAJAHJWiRYwxIgQIAAAQIECBAgQIAAAQIECCQuIFlL/AJbHgECBAgQIECAAAECBAgQIECAQCQByVokWMMSIECAAAECBAgQIECAAAECBAgkLiBZS/wCWx4BAgQIECBAgAABAgQIECBAgEAkAclaJFjDEiBAgAABAgQIECBAgAABAgQIJC4gWUv8AlseAQIECBAgQIAAAQIECBAgQIBAJAHJWiRYwxIgQIAAAQIECBAgQIAAAQIECCQuIFlL/AJbHgECBAgQIECAAAECBAgQIECAQCQByVokWMMSIECAAAECBAgQIECAAAECBAgkLiBZS/wCWx4BAgQIECBAgAABAgQIECBAgEAkAclaJFjDEiBAgAABAgQIECBAgAABAgQIJC4gWUv8AlseAQIECBAgQIAAAQIECBAgQIBAJAHJWiRYwxIgQIAAAQIECBAgQIAAAQIECCQuIFlL/AJbHgECBAgQIECAAAECBAgQIECAQCQByVokWMMSIECAAAECBAgQIECAAAECBAgkLiBZS/wCWx4BAgQIECBAgAABAgQIECBAgEAkAclaJFjDEiBAgAABAgQIECBAgAABAgQIJC4gWUv8AlseAQIECBAgQIAAAQIECBAgQIBAJAHJWiRYwxIgQIAAAQIECBAgQIAAAQIECCQuIFlL/AJbHgECBAgQIECAAAECBAgQIECAQCQByVokWMMSIECAAAECBAgQIECAAAECBAgkLiBZS/wCWx4BAgQIECBAgAABAgQIECBAgEAkAclaJFjDEiBAgAABAgQIECBAgAABAgQIJC4gWUv8AlseAQIECBAgQIAAAQIECBAgQIBAJAHJWiRYwxIgQIAAAQIECBAgQIAAAQIECCQuIFlL/AJbHgECBAgQIECAAAECBAgQIECAQCQByVokWMMSIECAAAECBAgQIECAAAECBAgkLiBZS/wCWx4BAgQIECBAgAABAgQIECBAgEAkAclaJFjDEiBAgAABAgQIECBAgAABAgQIJC4gWUv8AlseAQIECBAgQIAAAQIECBAgQIBAJAHJWiRYwxIgQIAAAQIECBAgQIAAAQIECCQuIFlL/AJbHgECBAgQIECAAAECBAgQIECAQCQByVokWMMSIECAAAECBAgQIECAAAECBAgkLiBZS/wCWx4BAgQIECBAgAABAgQIECBAgEAkAclaJFjDEiBAgAABAgQIECBAgAABAgQIJC4gWUv8AlseAQIECBAgQIAAAQIECBAgQIBAJAHJWiRYwxIgQIAAAQIECBAgQIAAAQIECCQuIFlL/AJbHgECBAgQIECAAAECBAgQIECAQCQByVokWMMSIECAAAECBAgQIECAAAECBAgkLiBZS/wCWx4BAgQILFdgt1mtNrtbrn+3Wa9vfdAtz1F33283I+cqW/d1p/6f+91utx/8ut9tN9vdoLl/sO8ECBAgQIAAAQIE7ldAsna/nkYjQIAAAQLnFNhv16vVelslSrvtet18ybJeslZkZnXPeo77fT+k6h0UOu53I5lVcWioXVPb7aaqdVWrsjpR3WEexeyrn3abZhljM6jnm2VhxZ3xyilu180Ah84+ESBAgAABAgQIEIgsIFmLDGx4AgQIECAQVWC/26xXTbpWpFJ1WNVJ1roRXDWjscZhrhXG7GdyobHKzTp/FJFaFa9tt2Xm1g/viomF8ZpkrX3S9ucROcnaCIomAgQIECBAgACBBxOQrD0YvRMTIECAAIF7EijTtTL8aqVlTUbVauufMSRk7S1gzUFVz0GHeoRyw1r1rTzDpru1bXSrW3nArrgNdF8ctdllh01sWbnRbr0pI7nmn627PMOZ2hMuByya++nffrft79GrJ+9PAgQIECBAgAABAvcjIFm7H0ejECBAgACBhxVo3da5227D09WakGy/3QyzqHq6ITo7hFLNQcXvZWB2Ip4KnfqxVvGwtMNWuvpcYcwmL9sVfdbVxraidb8P++w6e+CKL4fZzb8bdHRW7Xn4TIAAAQIECBAgQOAeBCRr94BoCAIECBAg8CACRWLWi72qZ5+VD0ALbzBot4zPsszPquytlaz1MreRg6vNcr1JNKladwtbeXzxqoG6QvZW3zu62Wy2u87Os2Je7VAtDBAmO8wJu307d8iOzFsTAQIECBAgQIAAgXsSkKzdE6RhCBAgQIDA2QW6z1ir95gNtnw1DYOYqp5x677NVrKWZbvd9KtFixQsbChbb+r3FZQNxSazXtZWn6f9Z4jIQt8mgAtRXvOYuM5z4pojq8OaUxaPddvuw+66cnlVh96dqc3xPhAgQIAAAQIECBC4TwHJ2n1qGosAAQIECJxboAySiqeWVcnaRHxW9Ov+1N7MdvhcJmuH7+1PnbWFzWf1SwqKOzmrjWKbbZmUtW5P7RxXfAmTXpdb1DbFbaPr4qhihuvDLIczPhza2uhWbHWrk7WdzWoDaw0ECBAgQIAAAQJRBSRrUXkNToAAAQIEziCw31Z7xMbDqDCD/k/l/rBmO9usD8ObMMvFFSFbHY9Vyy1O10vy6r5l1yJ+KzqFMUMqty5iuqapfJfB8Ixh4InmsIXOZrXqEviDAAECBAgQIEDgHAKStXMoOwcBAgQIEDiLQJln1Y8x6/45SLrau9H2RdC23u7qtvGdayNr6O9Ua3UJ+8e62+TCdrVNlX3td8X5WgeEj7tNFcgVaxkcffQNBqtq515/SN8JECBAgAABAgQIRBOQrEWjNTABAgQIEDiXQH3n5a2Stc7kyiitaep9bdoPH+q7P1erzeGW0N1utz28oCDc5zm+c20yIQtb1YpAbSJYK28kHd+zNpLDHebrEwECBAgQIECAAIEYApK1GKrGJECAAAEC5xRocrCpOOr4I9jqB5+18qpmxMllFD3qal4nEG7HbD0Dbbut7hM9vMG0fVx9fPizycXCuTdhD91gR9tkIje68taLGSbX4QcCBAgQIECAAAECdxGQrN1Fz7EECBAgQOARCBxisNF8qZzhkZ+y4TPNDkNW69vvd7vmHZ6Tax4cFnrutodgrTq017H7tZjqanV4R2jndOHHVgZY/Ti2vLG2zli+ECBAgAABAgQIELirgGTtroKOJ0CAAAECDyvQiqWqTKqzF6z1pdkW1p9wMUTnx9aYZd+plKp4ztq6Cbqaw0L3+i2h/bNlRbfV4U0D/bHLVXTmcxgi/NicsGgPt8L2xwg/jD+p7TCWTwQIECBAgAABAgTuKiBZu6ug4wkQIECAwIMKNGlWc8tn8x6C+n0ExZ+7yZgpvL2gt0OsPWhYXZFcdfKs4mzFmKvivQE1QOuwfXhd6MRLBaqXia7W6035VtHWprYQu63XxciHgesTdO4GDY96q17MMJastWZzON4nAgQIECBAgAABAvcpIFm7T01jESBAgACBcwt04qOxfKma0MRPRfNIhtUZtRih39C8E7Rzi2ivVxO9tYKzlk94eWhx9uKdnuUj1crphEStGKu7kS4cGnqsN5sQvRWHbsMMQnM3iRtpap3cRwIECBAgQIAAAQL3ISBZuw9FYxAgQIAAgQcS6GZZRZjUuYsyPB5tV9Sm2tzVzLN5uWeRazWt1YcQa61W3VcT1PlYP1UrHsEWqjjHYKNZuXmttbEtbHYLXctIrXzJwWqzLZO2w2zKzXTd6YW4LKRx3fbyDtPWna/lx27W1l+l7wQIECBAgAABAgTuKiBZu6ug4wkQIECAwMMJFPdjttKjYbJWbkkLMVMn3MrKiKoXT7UWst9uio1hZW023Wemdd9mUMVwIe/a1PFba6giSqvDuzItK24DrbeplR3L7W3dKYYbTgdPgNtueoc2Z2oSvjrpGwSGTVcfCBAgQIAAAQIECNyPgGTtfhyNQoAAAQIEnpxAdQfmmecdXjgwes6J+Uw0jw6hkQABAgQIECBAgMB5BSRr5/V2NgIECBAgQIAAAQIECBAgQIAAgVQEJGupXEnrIECAAAECBAgQIECAAAECBAgQOK+AZO283s5GgAABAgQIECBAgAABAgQIECCQioBkLZUraR0ECBAgQIAAAQIECBAgQIAAAQLnFZCsndfb2QgQIECAAAECBAgQIECAAAECBFIRkKylciWtgwABAgQIECBAgAABAgQIECBA4LwCkrXzejsbAQIECBAgQIAAAQIECBAgQIBAKgKStVSupHUQIECAAAECBAgQIECAAAECBAicV0Cydl5vZyNAgAABAgQIECBAgAABAgQIEEhFQLKWypW0DgIECBAgQIAAAQIECBAgQIAAgfMKSNbO6+1sBAgQIECAAAECBAgQIECAAAECqQhI1lK5ktZBgAABAgQIEIgj8Ouvv3748OFGESBAgAABAgS6Aj/++OMvv/wS5z9AnsyokrUnc6lMlAABAgQIECDwIAIfPnzIFQECBAgQIEBgTOD9+/fZskuytuzrb/UECBAgQIAAgVMCNzc3uSJAgAABAgQIjAm8e/cuW3ZJ1pZ9/a2eAAECBAgQIHBKQLKWKwIECBAgQGBCQLImWcsUAQIECBAgQIDAEQHJWq4IECBAgACBCQHJmmQtUwQIECBAgAABAkcEJGu5IkCAAAECBCYEJGuStUwRIECAAAECBAgcEZCs5YoAAQIECBCYEJCsSdYyRYAAAQIECBAgcERAspYrAgQIECBAYEJAsiZZyxQBAgQIECCQlsB+v99Prujoj5NHLfsHyVquCDwBgeursq6vbzPZWxx1fT09dPenoudojc2s7Nj8Mnpc0dj08IEAgUcmIFmTrGWKAAECBAgQSEpgt1mtVuvtWLi2365Xq9Vml9R64y9GspYrAo9b4PrlxapdF5dXM4KoWx0VOl+8HA57fXUZTn747eqyPZf250Of2rOeQ/3LbY6tx/AnAQIPLCBZk6xligABAgQIEEhLYDI/O5K5pSVwz6uRrOWKwGMWCGnUIUyrwqrLq+NzvtVR5Zj9Ia9fVqFaEa3V2Vhx1pF9Z0X21+4SJlfnau2f5h57fHV+JUDgjAKSNclapggQIECAAIHUBEK21t+2NtqY2sqjrEeylisCj1egTMi6m8nG2rorGOsx1lYeFX7p52p5fnW5KgO94vdBbNY+YYjQBj3KYV+Ohm6Ho8ePPfzuEwECDy0gWZOsZYoAAQIECBBITyBsT+vc9jlsSW/VkVYkWcsVgUcrMB56nUqjbnVU6DyIxdoiRY9jHUZPVzeemGvdrX0+nwkQeFQCkjXJWqYIECBAgACBFAW6SVr3W4rrjbgmyVquCDxWgalYKrQPd5lVy7jNUVN92yInkrWxcCy0hTTu+AnGjm2f2mcCBB5eQLImWcsUAQIECBAgkKRA6+7P1scklxp5UZK1XBF4rAKTwVPxw+Q2svlHhdhrdXl13bxDdEzi6MnGkrN2W/tzf/Bjv/X7+k6AwEMJSNYka5kiQIAAAQIEEhWoNqrtbVi72wWWrOWKwGMVmMy0JsOzYiWzjwqjtN/uWXweBnaT4xVvMxg+Rq3b1P3WgT7yU6efLwQIPKiAZE2ylikCBAgQIEAgWYGQqRX/J9h55Fqyy420MMlargg8UoHp6OlYsjb7qCpYu3h5dV0BXF+F14H2wrUjydrIPHpNs2fzSK+BaREgIFmTrGWKAAECBAgQSFcg3Ae66r8mNN31RlmZZC1XBB6rwGSm1YuvuvOfeVQYoxeiVTveVp1nuE2OF3bHDft2WiaTtaNL6C7INwIEHlJAsiZZyxQBAgQIECCQsIA7Qe9+cSVruSLwWAWm0qfJuCosZN5Rk2MMDi8ahglcdSdoJ0YLh3a7TpwmNHeOfazXwLwILF5AsiZZyxQBAgQIECCQsIBk7e4XV7KWKwKPVWAilhrZK9ZewbyjQq/O3rRqjLnJ2uA0oaH/2LbW99bJBse25+8zAQKPSkCyJlnLFAECBAgQIJCwgGTt7hdXspYrAo9WYDyBGm89LGL8915r72tz9LB9fM/acH/a9dXLy2FdhNciFO0v68e5lclgd29bc34fCBB4ZAKSNclapggQIECAAIGEBSRrd7+4krVcEXi8AiHn6t01OdhUNpj+rKPGOpUvFu3d+zmarJ2eRDmrYVBXnaO1g20wfw0ECDwiAcmaZC1TBAgQIECAQMICkrW7X1zJWq4IPGaBEGGtLi6vrou6ejny9s7rsk87q5pxVP2gtFXxctD24L0gL+ww620wG0/lxhiHydr8Y8fG00aAwLkFJGuStUwRIECAAAECCQtI1u5+cSVruSLwyAWuQppWP7HsonVbZTnxMqvq7TTLTx0Vjr0uk7p67NVw8HKLWTdZG8Zlk4KDroOGyUP9QIDAoxCQrEnWMkWAAAECBAgQIHBEQLKWKwJPQqDcVzY11evmIWbdHsePqvvO61X39icBAksSkKxJ1jJFgAABAgQIECBwRECylisCBAgQIEBgQkCyJlnLFAECBAgQIECAwBEByVquCBAgQIAAgQkByZpkLVMECBAgQIAAAQJHBCRruSJAgAABAgQmBCRrkrVMESBAgAABAgQIHBGQrOWKAAECBAgQmBCQrEnWMkWAAAECBAgQIHBEQLKWKwIECBAgQGBCQLImWcsUAQIECBAgQIDAEQHJWq4IECBAgACBCQHJmmQtUwQIECBAgAABAkcEfv7551wRIECAAAECBMYE3r9/ny27JGvLvv5WT4AAAQIECBA4JfDx48dXr179TREgQIAAAQIEugKvXr3618ePp/5TIvHfJWuJX2DLI0CAAAECBAgQIECAAAECBAgQiCQgWYsEa1gCBAgQIECAAAECBAgQIECAAIHEBSRriV9gyyNAgAABAgQIECBAgAABAgQIEIgkIFmLBGtYAgQIECBAgAABAgQIECBAgACBxAUka4lfYMsjQIAAAQIECBAgQIAAAQIECBCIJCBZiwRrWAIECBAgQIAAAQIECBAgQIAAgcQFJGuJX2DLI0CAAAECBAgQIECAAAECBAgQiCQgWYsEa1gCBAgQIECAAAECBAgQIECAAIHEBSRriV9gyyNAgAABAgQIECBAgAABAgQIEIgkIFmLBGtYAgQIECBAgAABAgQIECBAgACBxAUka4lfYMsjQIAAAQIECBAgQIAAAQIECBCIJCBZiwRrWAIECBAgQIAAAQIECBAgQIAAgcQFJGuJX2DLI0CAAAECBAgQIECAAAECBAgQiCQgWYsEa1gCBAgQIECAAAECBAgQIECAAIHEBSRriV9gyyNAgAABAgQIECBAgAABAgQIEIgkIFmLBGtYAgQIECBAgAABAgQIECBAgACBxAUka4lfYMsjQIAAAQIECBAgQIAAAQIECBCIJCBZiwRrWAIECBAgQIAAAQIECBAgQIAAgcQFJGuJX2DLI0CAAAECBAgQIECAAAECBAgQiCQgWYsEa1gCBAgQIECAAAECBAgQIECAAIHEBSRriV9gyyNAgAABAgQIECBAgAABAgQIEIgkIFmLBGtYAgQIECBAgAABAgQIECBAgACBxAUka4lfYMsjQIAAAQIECBAgQIAAAQIECBCIJCBZiwRrWAIECBAgQIAAAQIECBAgQIAAgcQFJGuJX2DLI0CAAAECBAgQIECAAAECBAgQiCQgWYsEa1gCBAgQIECAAAECBAgQIECAAIHEBSRriV9gyyNAgAABAgQIECBAgAABAgQIEIgkIFmLBGtYAgQIECBAgAABAgQIECBAgACBxAUka4lfYMsjQIAAAQIECBAgQIAAAQIECBCIJCBZiwRrWAIECBAgQIAAAQIECBAgQIAAgcQFJGuJX2DLI0CAAAECBAgQIECAAAECBAgQiCQgWYsEa1gCBAgQIECAAAECBAgQIECAAIHEBSRriV9gyyNAgAABAgQIECBAgAABAgQIEIgkIFmLBGtYAgQIECBAgAABAgQIECBAgACBxAUka4lfYMsjQIAAAQIECBAgQIAAAQIECBCIJCBZiwRrWAIECBAgQIAAAQIECBAgQIAAgcQFJGuJX2DLI0CAAAECBAgQIECAAAECBAgQiCQgWYsEa1gCBAgQIECAAAECBAgQIECAAIHEBSRriV9gyyNAgAABAgQIECBAgAABAgQIEIgkIFmLBGtYAgQIECBAgAABAgQIECBAgACBxAUka4lfYMsjQIAAAQIECBAgQIAAAQIECBCIJCBZiwRrWAIECBAgQIAAAQIECBAgQIAAgcQFJGuJX2DLI0CAAAECBAgQIECAAAECBAgQiCQgWYsEa1gCBAgQIECAAAECBAgQIECAAIHEBSRriV9gyyNAgAABAgQIECBAgAABAgQIEIgkIFmLBGtYAgQIECBAgAABAgQIECBAgACBxAUka4lfYMsjQIAAAQIECBAgQIAAAQIECBCIJCBZiwRrWAIECBAgQIAAAQIECBAgQIAAgcQFJGuJX2DLI0CAAAECBAgQIECAAAECBAgQiCQgWYsEa1gCBAgQIECAAAECBAgQIECAAIHEBSRriV9gyyNAgAABAgQIECBAgAABAgQIEIgkIFmLBGtYAgQIECBAgAABAgQIECBAgACBxAUka4lfYMsjQIAAAQIECBAgQIAAAQIECMjDMGEAACAASURBVBCIJCBZiwRrWAIECBAgQIAAAQIECBAgQIAAgcQFJGuJX2DLI0CAAAECBAgQIECAAAECBAgQiCQgWYsEa1gCBAgQIECAAAECBAgQIECAAIHEBSRriV9gyyNAgAABAgQIECBAgAABAgQIEIgkIFmLBGtYAgQIECBAgAABAgQIECBAgACBxAUka4lfYMsjQIAAAQIECBAgQIAAAQIECBCIJCBZiwRrWAIECBAgQIAAAQIECBAgQIAAgcQFJGuJX2DLI0CAAAECBAgQIECAAAECBAgQiCQgWYsEa1gCBAgQIECAAAECBAgQIECAAIHEBSRriV9gyyNAgAABAgQIECBAgAABAgQIEIgkIFmLBGtYAgQIECBAgAABAgQIECBAgACBxAUka4lfYMsjQIAAAQIECBAgQIAAAQIECBCIJCBZiwRrWAIECBAgQIAAAQIECBAgQIAAgcQFJGuJX2DLI0CAAAECBAgQIECAAAECBAgQiCQgWYsEa1gCBAgQIECAAAECBAgQIECAAIHEBSRriV9gyyNAgAABAgQIECBAgAABAgQIEIgkIFmLBGtYAgQIECBAgAABAgQIECBAgACBxAUka4lfYMsjQIAAAQIECBAgQIAAAQIECBCIJCBZiwRrWAIECBAgQIAAAQIECBAgQIAAgcQFJGuJX2DLI0CAAAECBAgQIECAAAECBAgQiCQgWYsEa1gCBAgQIECAAAECBAgQIECAAIHEBSRriV9gyyNAgAABAgQIECBAgAABAgQIEIgkIFmLBGtYAgQIECBAgAABAgQIECBAgACBxAUka4lfYMsjQIAAAQIECBAgQIAAAQIECBCIJCBZiwRrWAIECBAg8DAC+yM1Y0a7zXq92c3oOKfLfrtZb7b7Qdf9dnNv5xgMroEAAQIECBAgQIDA+QQka+ezdiYCBAgQIHDfAvv97lBFgrXfrler1XqkiuZByFWkcN057TarVT/12u92vV5Z1s/vuqNU34rZDE9az7I6TZHlHamxZG70ZBoJECBAgAABAgQInF9AsnZ+c2ckQIAAAQL3JVDkYGWOVuVmRZbVD8bKk+02g5ArxHC95GuYrJXn6IZyZYC3atXoSaeStToCDLvjig1sU7UeiwPvC884BAgQIECAAAECBO4sIFm7M6EBCBAgQIDAgwk0cdl+uw4R2TDyaqVfvRCtmHWIzdqpWD9ZG3QIay1Os9nV+9Z2U3HekWStOvdmuBuuhXn8+FZHHwkQIECAAAECBAg8jIBk7WHcnZUAAQIECNyHwGiy1g7KDidpuh6awqfelrROshZyupE8Ltx0ejhNlbNth7d1hlgv3OrZuqlz/qPcJGu9i+UrAQIECBAgQIDAYxOQrD22K2I+BAgQIEBgvkATl3X3rI09tmz0OWvhTGV+VgVlrWStl7m1Z1VmaXVLlazthrd1hoe+hVs9t4fNaa1TZOMPWatDO8laTexPAgQIECBAgACBRyogWXukF8a0CBAgQIDADIFBsla+WqC8PbO6WbP1ZWrE1isK2rFXtttNvCV0LFkbGXw8GWufovi87j5lbX14hcL48SMn0kSAAAECBAgQIEDgYQQkaw/j7qwECBAgQOA+BEKyVjzvbBees1a/KnS7Kd7JuSur86X1js/6KWndP8vYq9tWfzvMeCpZ229bd32W7wAd3kzaS9Z6HdpDS9YO5D4RIECAAAECBAg8SgHJ2qO8LCZFgAABAgRmCRQhVV3r7b55zWbxTs1mK1jry+GezPaR9Qin/qxv0iwjs+qlpMWdp6t6m1kxaispG0/GJGuzrq1OBAgQIECAAAECT0FAsvYUrpI5EiBAgACBcYHenrW6U3vfV+9tA3WX8rbRejfavozEDm/73BRZWfNr9aF17Hbdiu42rRs4O9narGTN3aAHV58IECBAgAABAgSemoBk7aldMfMlQIAAAQIHgc5z1jab5uWcYfdZ/R6DzpfDvrPDKFmWtfeRDb92uhZfOtFd91vx06o6i2RtIKeBAAECBAgQIEAgLQHJWlrX02oIECBAYFkCnWRtW+8x24XHrNXfimewrTb1j+M+7Tis6NEL2gYHHUnWyoPLW0JnJWutu0eL87SHHj9+MBsNBAgQIECAAAECBB5KQLL2UPLOS4AAAQIE7i7QS9aKAYs0qnrW2T681iAEZWEfWev1Bb1T95O0/vcsvBvhcHw7/uqGYWHg/b7sOp6MtQdvFtBMqD30+PFNVx8IECBAgAABAgQIPLSAZO2hr4DzEyBAgACBzxdogqkQou2KzWrhpaDFbaHFCw3WxRtCix1sm114Rejm8AqD9kmLrKuzdawdfoWOvYyrHX+NJGv12L2jqub24OHMm04dbiYNKWFnXvXA/iRAgAABAgQIECDwOAQka4/jOpgFAQIECBD4HIFDMLVerbfb7SE52223uzJZ22621Waz/W7TfD6cLby9oH4yWtXcDr9CUzdKqyKvXVVFaDf6/LY5yVr9NLj2n/Vg48cfpu4TAQIECBAgQIAAgQcWkKw98AVwegIECBAgcAeBQ7K2aUK1fdieVmxC227X600Re62KTWvVHZrdsxXZ1ap540Dz2yBZ6zVUh4V3I5T/qMOwZojiw3gy1hurc0T3y/jx3T6+ESBAgAABAgQIEHhAAcnaA+I7NQECBAgQuKNAczdoOU6RWbVStOY5a9l+t1kXN4puds2z0vZFW929P41yoFWzjyz0q7e+9V4z0Ds2PJEtbGarMr3WYYdZjgZx1Uj1qxd222I5x3r2Tu0rAQIECBAgQIAAgXMLSNbOLe58BAgQIEDgPgW6O9HqVwdUyVgvl9q39q2Vu87aUVt3VvvtZlM8rS3U5rAjruq137XG6hzZ2c62Xo8EYyf2rDVz78d5ndP4QoAAAQIECBAgQOAxCEjWHsNVMAcCBAgQIPAAAt1Q7pwTeLgzn3OVzkWAAAECBAgQILAAAcnaAi6yJRIgQIAAAQIECBAgQIAAAQIECEQQkKxFQDUkAQIECBAgQIAAAQIECBAgQIDAAgQkawu4yJZIgAABAgQIECBAgAABAgQIECAQQUCyFgHVkAQIECBAgAABAgQIECBAgAABAgsQkKwt4CJbIgECBAgQIECAAAECBAgQIECAQAQByVoEVEMSIECAAAECBAgQIECAAAECBAgsQECytoCLbIkECBAgQIAAAQIECBAgQIAAAQIRBCRrEVANSYAAAQIECBAgQIAAAQIECBAgsAABydoCLrIlEiBAgAABAgQIECBAgAABAgQIRBCQrEVANSQBAgQIECBAgAABAgQIECBAgMACBCRrC7jIlkiAAAECBAgQIECAAAECBAgQIBBBQLIWAdWQBAgQIECAAIGEBH799dcPHz7cKAIECBAgQIBAV+DHH3/85ZdfEvqvns9ZimTtc9QcQ4AAAQIECBBYjsCHDx9yRYAAAQIECBAYE3j//n227JKsLfv6Wz0BAgQIECBA4JTAzc1NrggQIECAAAECYwLv3r3Lll2StWVff6snQIAAAQIECJwSkKzligABAgQIEJgQkKxJ1jJFgAABAgQIECBwRECylisCBAgQIEBgQkCyJlnLFAECBAgQIECAwBEByVquCBAgQIAAgQkByZpkLVMECBAgQIAAAQJHBCRruSJAgAABAgQmBCRrkrVMESBAgAABAkkJ7Lfr9Xq7i7ymXTjLPvJZHsfwkrVcESBAgAABAhMCkjXJWqYIECBAgACBMwjs97NSqJndjkx4t1mt1ttZJzsyyumf9tv1arWJHeCdnscZekjWckVgIQLX19fjK72+Kmvq9+qomd3Gz6GVAIEnKiBZk6xligABAgQIEIgtEFKo0znUzG7HZnvOvOtcGd6x9Z7lN8larggkL3B9dXmxWq1WFy/72dr1y/BD8WOoi8urfpdCZ2a35CEtkMACBSRrkrVMESBAgAABApEFqsTsVLQ2s9uxyZ4zWMuypURrkrVcEUhZ4PplFaoVCVo/Wbu6LBqbMK3Kzy6veiAzu/WO8pUAgSQEJGuStUwRIECAAAECcQXKuGuzOXH35Mxux+Z63mBtMdGaZC1XBFIWuLqsorMiHusma2Vg1t3GNtI20pSPtaWsaG0EFiwgWZOsZYoAAQIECBCIKlDHXfWfEyerf67/nOh2tPncm8juMtejC3lcP0rWckVgEQJFGNZJ1kI6NtifFvattfvN7LYIQ4sksEQByZpkLVMECBAgQIBATIEi7Sqf9H80h5rZ7ehMJ06w3203m+KdBvvdZh0qfAtDNU3r9WbXf+1BcWB5wDr83P99KZvWJGu5IrAIgX6yNojQKoXQfgjcZnZbBKFFElikgGRNspYpAgQIECBAIKLAITHLspB8jb+3c2a34xMtBhkZvgzcirtR15tQ6+Ip3JtdNZ9WW/vgcNRqXR8Sjmn/HqYykeUdn+aT+1WylisCixDoJ2vje9HyPNzpedi0NrPbIggtksAiBSRrkrVMESBAgAABAvEE2onZkWhtZrfj85yKucqMrNw3V45QtXReqVC2bXbVObozKhpHc7vRxuPTfHq/StZyRWARAmPJ2iFAaxF0s7T+YU3Hbrem2QcCBBITkKxJ1jJFgAABAgQIRBPo51Mhvhrs/Aqh1SD5GnY7Mc0weBONHTqPnTRMrHeGTkrW+XIYq/9pZrf+YU/ru2QtVwQWIdCLyKbu8iz3rK3q20FndluEoEUSWKaAZE2ylikCBAgQIEAglkCZX1U3VB7uuuwlWmWwVt93Od3t5CwnYq6xxO1kW+iwWm+2g6evtacxNkz79zQ+S9ZyRWARAr1krXfTZ4uguxmtf1jTsdutafaBAIHEBCRrkrVMESBAgAABApEEQrC2at4BUH1Y9R+GNrPb6UneZ7KWFfeubsLT1Yqnsk1EbJK1XBEgkIxAPyKbSsZ6u9RmdkuGyUIIEOgJSNYka5kiQIAAAQIEogiE1Km/PW34vLKZ3eZMcSLnGmue25Zl+/1uW0dsg9VMZHlzJvuE+tizlisCixDoJ2u9BK0x6EVpM7s1h/tAgEBiApI1yVqmCBAgQIAAgRgCU4lZ+SqA5qlqM7vNm+FYXla9N6H3/LWxnmNth/Puw9a67jDLCNYyyVquCCxCoJ+s5eOZ2aB10BC0xlsXAWmRBBYmIFmTrGWKAAECBAgQiCAwnZh1orWZ3eZOcDTqGkvMTrbtd5tN9xFrw0OGLXPn+bT6SdZyRWARAoNkrYzWmncVlAi9HWtFYwjRTndbBKJFEliggGRNspYpAgQIECBA4P4FQug0uHmyPk+z/Wtmt/q403+ORWtjAdjJtjDF1Xq72++LR67td9vimWudFY2NcXqGT7CHZC1XBBYhMEzWqteAri4ur66Lunp5ebFarS5eXvdAQtx2ulvvKF8JEEhCQLImWcsUAQIECBAgcO8CxxOzZtfazG63md5I3DXSlM1o2+8OLzAoXmKwWi/yVtAsczdorggsQ2AsWcuLcK1I0+q6uBzEaqXOzG7LoLRKAosSkKxJ1jJFgAABAgQIJCVQ7DbrZmB3Wt6+rMEY93yawfiPqMGetVwRIBD2rPW3qg1ZZnYbHqiFAIEnKyBZk6xligABAgQIEEhNYB9u4Yy7qnOcI+4KZo8uWcsVAQIECBAgMCEgWZOsZYoAAQIECBAgQOCIgGQtVwQIECBAgMCEgGRNspYpAgQIECBAgACBIwKStVwRIECAAAECEwKSNclapggQIECAAAECBI4ISNZyRYAAAQIECEwISNYka5kiQIAAAQIECBA4IiBZyxUBAgQIECAwISBZk6xligABAgQIECBA4IiAZC1XBAgQIECAwISAZE2ylikCBAgQIECAAIEjAj///HOuCBAgQIAAAQJjAu/fv8+WXZK1ZV9/qydAgAABAgQInBL4+PHjq1ev/qYIECBAgAABAl2BV69e/evjx1P/KZH475K1xC+w5REgQIAAAQIECBAgQIAAAQIECEQSkKxFgjUsAQIECBAgQIAAAQIECBAgQIBA4gKStcQvsOURIECAAAECBAgQIECAAAECBAhEEpCsRYI1LAECBAgQIECAAAECBAgQIECAQOICkrXEL7DlESBAgAABAgQIECBAgAABAgQIRBKQrEWCNSwBAgQIECBAgAABAgQIECBAgEDiApK1xC+w5REgQIAAAQIECBAgQIAAAQIECEQSkKxFgjUsAQIECBAgQCARgV9//fXDhw83igABAgQIECDQFfjxxx9/+eWXRP6L53OXIVn7XDnHESBAgAABAgSWIfDhw4dcESBAgAABAgTGBN6/f58tuyRry77+Vk+AAAECBAgQOCVwc3OTKwIECBAgQIDAmMC7d++yZZdkbdnX3+oJECBAgAABAqcEJGu5IkCAAAECBCYEJGuStUwRIECAAAECBAgcEZCs5YoAAQIECBCYEJCsSdYyRYAAAQIECBAgcERAspYrAgQIECBAYEJAsiZZyxQBAgQIECBAgMARAclarggQIECAAIEJAcmaZC1TBAgQIECAQGoC++16vd7uIi9rF86yj3yWRzC8ZC1XBAgQIECAwISAZE2ylikCBAgQIEAgksC+V/NOs9/fNazabVar9fauo5ye7X67Xq02sQO80/OI3UOylisCCxG4vr4eX+n1VVlTv1dHzew2fg6tBAg8UQHJmmQtUwQIECBAgEAUgSLfGqn1ZrubDr1CWHW3uOqcede5MrwoF2j2oJK1XBFIXuD66vKi+Df2xct+tnb9MvzQ/Ov84vKq36XQmdkteUgLJLBAAcmaZC1TBAgQIECAQBSBMnXaNfvWdrvddrtZh/87W2/G07UqWLtLtHbOYC3LFhGtSdZyRSBlgeuXVahWJGj9ZO3qsmhswrQqP7u86oHM7NY7ylcCBJIQkKxJ1jJFgAABAgQIRBGYCp32u+ImytHwrEzFNkX89rk3WZ43WFtGtCZZyxWBlAWuLqvorIjHuslaGZh1t7GNtI005WNtKStaG4EFC0jWJGuZIkCAAAECBKIITCVrxcmK34aPQqtTsfrPz5nWsbN+zninjrnLXE+N/Vh+l6zlisAiBIowrJOshXRssD8t7Ftr95vZbRGGFklgiQKSNclapggQIECAAIEoAsczrpCtdTemHZo+P66aOHK/2242xTsN9rvNOlT4FtbdNK1H7lEtDiwPWIefh0+IO77MKLLnHlSylisCixDoJ2uDCK1SCO2HwG1mt0UQWiSBRQpI1iRrmSJAgAABAgSiCByPnEIE1nmB5yFYy7LhrzOnOHHSMnArbjNdb0LV96OWJ2q1tacUflyt60PCMe3fw5zKoZN+QahkLVcEFiHQT9bG96LlebjT87BpbWa3RRBaJIFFCkjWJGuZIkCAAAECBKIITIRc9bnaQVrR1v1eJl7FLrNb1VTMVWZk7Ye3VS2dB7qVbc1Guu6M6jkOorUT67zV/B9nZ8larggsQmAsWTsEaC2CbpbWP6zp2O3WNPtAgEBiApI1yVqmCBAgQIAAgSgCJxKnXm7V+/qZu9aOJmu9TCyccaStaTqxgBptZre6+xP8U7KWKwKLEOhFZFN3eZZ71lb17aAzuy1C0CIJLFNAsiZZyxQBAgQIECAQReBE4hSCre7+sPq+y8PNmU3KNXeGEycdS9xOtpVb2Nab7e7Y1rmxYebO9on0k6zlisAiBHrJWu+mzxZBdzNa/7CmY7db0+wDAQKJCUjWJGuZIkCAAAECBKIITIRc1blCINUEZyFmWzWvCqg+jL0/9MRUJ046Fn/NadtvN+HpaqtiKuMR29gwJyb51H6WrOWKwCIE+hHZVDLW26U2s9siCC2SwCIFJGuStUwRIECAAAECUQQmQq7yXJ1grfOlNZejI7T6tT5O5FxjzXPbsmy/323riK0JA+uTfsYk60Ofyp+StVwRWIRAP1nrJWiNQS9Km9mtOdwHAgQSE5CsSdYyRYAAAQIECEQROBI5hVBrVYdU4Vv9pTOVYoj2awc6P45/GcvLqneNNreelkeO9RxrO5xnPzKfI6s8HPjEP0nWckVgEQL9ZC0fz8wGrYOGoDXeughIiySwMAHJmmQtUwQIECBAgEAUgYnMab/bhhssN/XTy6aDtf4LQ2dNc/S0Y4nZybb9btNMsjz18JBhy6xJPq1OkrVcEViEwCBZK6O15l0FJUJvx1rRGEK0090WgWiRBBYoIFmTrGWKAAECBAgQiCIQIq7NdlfVtngvQfXQsnUrsQrZ1OiOtWJWxSC33LU2Fq2NBWAn28K5V+vtbl+8waC4JbSYfmeqY2NEwXzQQSVruSKwCIFhsla9BnR1cXl1XdTVy8uL1Wp18fK6BxLittPdekf5SoBAEgKSNclapggQIECAAIEoAmUwVTz7v6n1evAagOPB2mdFayNx10hTNqNtv6uzwGoJ6+4dpWMhXhTLhx1UspYrAosQGEvW8iJcK9K0ui4uB7FaiTOz2yIkLZLAsgQka5K1TBEgQIAAAQKpCRSJVzcDu9MK92UNxrjn0wzGfywNkrVcESAQ9qz1t6oNWWZ2Gx6ohQCBJysgWZOsZYoAAQIECBBIUGAfbuGMu7BznCPuCuaNLlnLFQECBAgQIDAhIFmTrGWKAAECBAgQIEDgiIBkLVcECBAgQIDAhIBkTbKWKQIECBAgQIAAgSMCkrVcESBAgAABAhMCkjXJWqYIECBAgAABAgSOCEjWckWAAAECBAhMCEjWJGuZIkCAAAECBAgQOCIgWcsVAQIECBAgMCEgWZOsZYoAAQIECBAgQOCIgGQtVwQIECBAgMCEgGRNspYpAgQIECBAgACBIwI///xzrggQIECAAAECYwLv37/Pll2StWVff6snQIAAAQIECJwS+Pjx46tXr/6mCBAgQIAAAQJdgVevXv3r48dT/ymR+O+StcQvsOURIECAAAECBAgQIECAAAECBAhEEpCsRYI1LAECBAgQIECAAAECBAgQIECAQOICkrXEL7DlESBAgAABAgQIECBAgAABAgQIRBKQrEWCNSwBAgQIECBAgAABAgQIECBAgEDiApK1xC+w5REgQIAAAQIECBAgQIAAAQIECEQSkKxFgjUsAQIECBAgQIAAAQIECBAgQIBA4gKStcQvsOURIECAAAECBAgQIECAAAECBAhEEpCsRYI1LAECBAgQIEAgEYFff/31w4cPN4oAAQIECBAg0BX48ccff/nll0T+i+dzlyFZ+1w5xxEgQIAAAQIEliHw4cOHXBEgQIAAAQIExgTev3+fLbska8u+/lZPgAABAgQIEDglcHNzkysCBAgQIECAwJjAu3fvsmWXZG3Z19/qCRAgQIAAAQKnBCRruSJAgAABAgQmBCRrkrVMESBAgAABAgQIHBGQrOWKAAECBAgQmBCQrEnWMkWAAAECBAgQIHBEQLKWKwIECBAgQGBCQLImWcsUAQIECBAgQIDAEQHJWq4IECBAgACBCQHJmmQtUwQIECBAgECCAvvter3e7iKvbBfOso98loceXrKWKwIECBAgQGBCQLImWcsUAQIECBAgcO8C+14dPUGv773kVLvNarXe3stQx+e+Xa9Wm9gB3tEpxP9RspYrAgsRuL6+Hl/p9VVZU79XR83sNn4OrQQIPFEByZpkLVMECBAgQIDAPQsUsdZIrTfb3TDrulXnmRPdnzHvOleGN3PpMbpJ1nJFIHmB66vLi+Lf2xcv+9na9cvwQ/Mv9YvLq36XQmdmt+QhLZDAAgUka5K1TBEgQIAAAQL3LFCGTbtmL9put9tuN+vw/2XrTS9du1XneRM9Z7CWZelHa5K1XBFIWeD6ZRWqFQlaP1m7uiwamzCtys8ur3ogM7v1jvKVAIEkBCRrkrVMESBAgAABAvcsMJU17XfFXrLe3ZO36jxroucN1hYQrUnWckUgZYGryyo6K+KxbrJWBmbdbWwjbSNN+VhbyorWRmDBApI1yVqmCBAgQIAAgXsWmArLitMUv3WegHarzrMmemzEWQPcstO5k7xbTu/u3SVruSKwCIEiDOskayEdG+xPC/vW2v1mdluEoUUSWKKAZE2ylikCBAgQIEDgngWOR1shWzs89P9WnedMdCLo2u+2m03xToP9brMOFb6FEZum9eBm1aL/tjpgHX4ef1TcOV6XMGf1MfpI1nJFYBEC/WRtEKFVCqH9ELjN7LYIQosksEgByZpkLVMECBAgQIDAPQscD8tC8nUIom7Vec5EJwYsA7fNZr1ab0LVN6aW82m1HeaWZeHH1bo+JBzT/j1MqBw63ReEStZyRWARAv1kbXwvWp6HOz0Pm9ZmdlsEoUUSWKSAZE2ylikCBAgQIEDgngUmsq36LMXPq2bT2q0610Mc+XMq5iozssN569SsPZe6rTO59iETD1U7sYYjs30SP0nWckVgEQJjydohQGsRdLO0/mFNx263ptkHAgQSE5CsSdYyRYAAAQIECNyzwImg6QGTtd52szCTkbam6cRKareZ3eruT+1PyVquCCxCoBeRTd3lWe5ZW9W3g87stghBiySwTAHJmmQtUwQIECBAgMA9C5wImkKe1dkW1iRZw4l0Ow9/H7ZMnH1sL9vJtnKj23qz3Q2frnY489gwh1+f/ifJWq4ILEKgl6z1bvpsEXQ3o/UPazp2uzXNPhAgkJiAZE2ylikCBAgQIEDgngUmsq3qLCGHOmRpt+o8Z6ITA47FX3Pa9ttNeLraqnin6XjENjbMnJk+lT6StVwRWIRAPyKbSsZ6u9RmdlsEoUUSWKSAZE2ylikCBAgQIEDgngUmsq3yLL1gLbtV5zkTnci5xprntmXZfr/b1hHbIRWspnN0CXOm/Mj7SNZyRWARAv1krZegNQa9KG1mt+ZwHwgQSExAsiZZyxQBAgQIECBwzwJHkqaQZa3a2dStOs+a6FheVr2boLkHtRxorOdY2+G0+2K63XcaHM8GD4c+3U+StVwRWIRAP1nLxzOzQeugIWiNty4CaD/gjQAAD7lJREFU0iIJLExAsiZZyxQBAgQIECBwzwITYdl+tw33VW46Dy27Ved5Ex0dciwxO9m23226s82Ghwxb5s3y6fSSrOWKwCIEBslaGa017yooEXo71orGEKKd7rYIRIsksEAByZpkLVMECBAgQIDAPQuEZGuz3VW13Ww29bPK1r2gKit3fM3tPHOiY9HaWAB2sq0YaLVab3f74g0GxS2hRTbY3nI3ErXNnOTT6SZZyxWBRQgMk7XqNaCri8ur66KuXl5erFari5fXPZAQt53u1jvKVwIEkhCQrEnWMkWAAAECBAjcs0CZRxWZVFPr9cTT/0Oy1nQrP0x3njvRkchspGk0Fev12+/qULCa5Lp7R+lYiDd3lk+ln2QtVwQWITCWrOVFuFakaXVdXA5itRJnZrdFSFokgWUJSNYka5kiQIAAAQIEEhQoEq9uBnanRe7LGoxxz6cZjP8oGiRruSJAIOxZ629VG7LM7DY8UAsBAk9WQLImWcsUAQIECBAgkKbAPtzCGXdt5zhH3BXMGF2ylisCBAgQIEBgQkCyJlnLFAECBAgQIECAwBEByVquCBAgQIAAgQkByZpkLVMECBAgQIAAAQJHBCRruSJAgAABAgQmBCRrkrVMESBAgAABAgQIHBGQrOWKAAECBAgQmBCQrEnWMkWAAAECBAgQIHBEQLKWKwIECBAgQGBCQLImWcsUAQIECBAgQIDAEQHJWq4IECBAgACBCQHJmmQtUwQIECBAgAABAkcEfv7551wRIECAAAECBMYE3r9/ny27JGvLvv5WT4AAAQIECBA4JfDx48dXr179TREgQIAAAQIEugKvXr3618ePp/5TIvHfJWuJX2DLI0CAAAECBAgQIECAAAECBAgQiCQgWYsEa1gCBAgQIECAAAECBAgQIECAAIHEBSRriV9gyyNAgAABAgQIECBAgAABAgQIEIgkIFmLBGtYAgQIECBAgAABAgQIECBAgACBxAUka4lfYMsjQIAAAQIECBAgQIAAAQIECBCIJCBZiwRrWAIECBAgQIAAAQIECBAgQIAAgcQFJGuJX2DLI0CAAAECBAgQIECAAAECBAgQiCQgWYsEa1gCBAgQIECAAAECBAgQIECAAIHEBSRriV9gyyNAgAABAgQIECBAgAABAgQIEIgkIFmLBGtYAgQIECBAgAABAgQIECBAgACBxAUka4lfYMsjQIAAAQIECBAgQIAAAQIECBCIJCBZiwRrWAIECBAgQIAAAQIECBAgQIAAgcQFJGuJX2DLI0CAAAECBAgQIECAAAECBAgQiCQgWYsEa1gCBAgQIECAAAECBAgQIECAAIHEBSRriV9gyyNAgAABAgQIECBAgAABAgQIEIgkIFmLBGtYAgQIECBAgAABAgQIECBAgACBxAUka4lfYMsjQIAAAQIECBAgQIAAAQIECBCIJCBZiwRrWAIECBAgQIAAAQIECBAgQIAAgcQFFpGs3dzcfPfdd2/evPmnIkCAQC3w/fff39zcJP7veMsjQIAAAQIECBAgQIAAgZgC6SdrNzc3b968ef/+/b///e/fFAECBILAv//9759++unNmzfCtZh/xRibAAECBAgQIECAAAECiQukn6x9//33//d//ydMIECAwFDg3bt33333XeL/mrc8AgQIECBAgAABAgQIEIgmkH6y9s9//vPTp0/D/6PWQoAAgU+fPr158ybav2ANTIAAAQIECBAgQIAAAQKJCywiWRMfECBAYErgn//8Z+L/mrc8AgQIECBAgAABAgQIEIgmIFmb+t9t7QQILEJAshbt7xcDEyBAgAABAgQIECBAIH0BydoisgOLJEBgSkCylv5fdFZIgAABAgQIECBAgACBaAKStan/3dZOgMAiBCRr0f5+MTABAgQIECBAgAABAgTSF5CsLSI7WN4iXz9frZ6/fnt04a9fvHg93uHti+fPnr84fvT4kVqfnoBkLf2/6KyQAAECBAgQIECAAAEC0QQka08vCDDjSuDt60FVYdjbF89Wq+cv3rZqqFaEb6tno/lZcfz4L8NhtDx1AclatL9fDEyAAAECBAgQIECAAIH0BSRrTz0WWO78Q3y26lSZho38UGxgG0qFjmMJmmRtiJVui2Qt/b/orJAAAQIECBAgQIAAAQLRBCRr6QYGC1lZPwXrx2X9712WsHFtkLr1x+we41taApK1aH+/GJgAAQIECBAgQIAAAQLpC0jW0goJlreaXgjWT8r634dAb188HzyQrThqbC/b8GgtT19Aspb+X3RWSIAAAQIECBAgQIAAgWgCkrWnHwwsewWvnx8ysLA9rbg99Fld5b2i9bfB3rQpOsnalEyK7ZK1aH+/GJgAAQIECBAgQIAAAQLpC0jWUowKlrOmwY615y/Cywdeh3rxvHgRweHzIVkrNqpVNfIKgzKhO/RejuciVypZS/8vOiskQIAAAQIECBAgQIBANAHJ2iKzhFQWXW1Sq/akhSisaKozsanPv/32+nk4ptjSVndumZTDuh20RZLyR8latL9fDEyAAAECBAgQIECAAIH0BSRrKUcGqa8tPESt3JVWbE+7RbJWyRQDDJO1Kq873GWauuPC1ydZS/8vOiskQIAAAQIECBAgQIBANAHJ2sJThSe8/DoA6wZqdWv5hLXuPwch2niyFp6y9jzcSfr2CfuY+kwByVq0v18MTIAAAQIECBAgQIAAgfQFJGsz/+9bt8cmUERo4alqw2Tt+eu3oV6HO0Pbn3uLGE3WQrD24m0xvhtCe2BJfpWspf8XnRUSIECAAAECBAgQIEAgmoBkLcmsYBGLevv6dYi/xpK1EiCEb6+HnxuesWStCtZ++0201jil/UGyFu3vFwMTIECAAAECBAgQIEAgfQHJWtqhQeqra7Kz5kMZjL0ONf1u0MqlSdbevnheviO0GKd+9Fr7c+qQS16fZC39v+iskAABAgQIECBAgAABAtEEJGtLjhSe/tqbQK35UIRlq+ploc/CY9aqL2OvAS2TtZCglXFamcs1T1cLgw2ezvb02aygLSBZi/b3i4EJECBAgAABAgQIECCQvoBkrf2/2D4/NYEyUHv79m35SLXyFs4mCmvitt96P9TLDMlZkcSVhwyDtFboVh/jz9QEJGvp/0VnhQQIECBAgAABAgQIEIgmIFlLLSZY1nrK5Kt6A+jz171no51K1sqjq1htIkSr+pT3ii4LdymrlaxF+/vFwAQIECBAgAABAgQIEEhfQLK2lPggzXW2s7PffvutdzNn/Wu1p61+flpD8fbFs+rtn0fzs3Jn2/PXzU2izQA+pCAgWUv/LzorJECAAAECBAgQIECAQDQByVoK0cCC1xBeEFqtv4jHqqSsbHn74vmz56/L1Gy1evaiek3okKuXyA06DEYe9NDwdAUka9H+fjEwAQIECBAgQIAAAQIE0heQrD3dQMDMhwJvP3df2WcfOJyDlicmIFlL/y86KyRAgAABAgQIECBAgEA0AcnaE0sBTJcAgfsVkKxF+/vFwAQIECBAgAABAgQIEEhfQLJ2v/+TbjQCBJ6YgGQt/b/orJAAAQIECBAgQIAAAQLRBCRrTywFMF0CBO5XQLIW7e8XAxMgQIAAAQIECBAgQCB9gfSTtTdv3nz69Ol+/1fcaAQIpCHw6dMnyVr6f9FZIQECBAgQIECAAAECBKIJpJ+sfffdd+/evUsjBbAKAgTuV+Cnn376/vvvo/0L1sAECBAgQIAAAQIECBAgkLhA+snazc3NmzdvfvrpJzvX7jeSMBqBJy3w6dOnd+/evXnz5ubmJvF/zVseAQIECBAgQIAAAQIECEQTSD9Zy7Ls5ubmf//3f//rv/7rW0WAAIEg8N///d//8z//I1aL9peLgQkQIECAAAECBAgQILAIgUUka4u4khZJgAABAgQIECBAgAABAgQIECBwXgHJ2nm9nY0AAQIECBAgQIAAAQIECBAgQCAVAclaKlfSOggQIECAAAECBAgQIECAAAECBM4rIFk7r7ezESBAgAABAgQIECBAgAABAgQIpCIgWUvlSloHAQIECBAgQIAAAQIECBAgQIDAeQUka+f1djYCBAgQIECAAAECBAgQIECAAIFUBCRrqVxJ6yBAgAABAgQIECBAgAABAgQIEDivgGTtvN7ORoAAAQIECBAgQIAAAQIECBAgkIqAZC2VK2kdBAgQIECAAAECBAgQIECAAAEC5xWQrJ3X29kIECBAgAABAgQIECBAgAABAgRSEZCspXIlrYMAAQIECBAgQIAAAQIECBAgQOC8ApK183o7GwECBAgQIECAAAECBAgQIECAQCoCkrVUrqR1ECBAgAABAgQIECBAgAABAgQInFdAsnZeb2cjQIAAAQIECBAgQIAAAQIECBBIRUCylsqVtA4CBAgQIECAAAECBAgQIECAAIHzCkjWzuvtbAQIECBAgAABAgQIECBAgAABAqkISNZSuZLWQYAAAQIECBAgQIAAAQIECBAgcF4Bydp5vZ2NAAECBAgQIECAAAECBAgQIEAgFQHJWipX0joIECBAgAABAgQIECBAgAABAgTOKyBZO6+3sxEgQIAAAQIECBAgQIAAAQIECKQiIFlL5UpaBwECBAgQIECAAAECBAgQIECAwHkFJGvn9XY2AgQIECBAgAABAgQIECBAgACBVAQka6lcSesgQIAAAQIECBAgQIAAAQIECBA4r4Bk7bzezkaAAAECBAgQIECAAAECBAgQIJCKgGQtlStpHQQIECBAgAABAgQIECBAgAABAucVkKyd19vZCBAgQIAAAQIECBAgQIAAAQIEUhFY/fDDD6msxToIECBAgAABAgQIECBAgAABAgQInEnghx9+WH377bdnOpvTECBAgAABAgQIECBAgAABAgQIEEhF4Ntvv1394x//SGU51kGAAAECBAgQIECAAAECBAgQIEDgTAJ///vfV19//fWZzuY0BAgQIECAAAECBAgQIECAAAECBFIR+Povf1n96dnFN998k8qKrIMAAQIECBAgQIAAAQIECBAgQIBAdIFvvvnmT88uVr/7/R/+/NVXb7//PvoJnYAAAQIECBAgQIAAAQIECBAgQIDA0xd4+/btn7/66ne//8Pqiy+//M8//vH//fWvwrWnf1mtgAABAgQIECBAgAABAgQIECBAIK7A27dv/99f//qff/zjF19+ufriy/8ow7U/f/WV20LjwhudAAECBAgQIECAAAECBAgQIEDgKQt88803f/7qqzJW++LL/6iStS+++PJ3v//Dn549+/ovf/n73//+7bff/vDDD095meZOgAABAgQIECBAgAABAgQIECBA4B4Efvjhh2+//fYf//jH119//adnz373+z988cWXX3z55Rdf/sf/B2IS0TkgFpAAAAAAAElFTkSuQmCC;" vertex="1" parent="1">
                    <mxGeometry x="-400" y="-330" width="1651" height="900" as="geometry"/>
                </mxCell>
            </root>
        </mxGraphModel>
    </diagram>
</mxfile>